<svg id="Group_6486" data-name="Group 6486" xmlns="http://www.w3.org/2000/svg" xmlns:xlink="http://www.w3.org/1999/xlink" width="657.806" height="443.19" viewBox="0 0 657.806 443.19">
  <defs>
    <clipPath id="clip-path">
      <rect id="Rectangle_3336" data-name="Rectangle 3336" width="657.806" height="443.19" fill="none"/>
    </clipPath>
    <clipPath id="clip-path-2">
      <path id="Path_29246" data-name="Path 29246" d="M368.822,31.907C324.8,49.7,283.485,67.486,244.434,63.155c-71.3-10.6-148.321,6.216-190.875,64.106l119.835,1.378L608.622,54.216c-21.789-30.6-55.64-46.571-84.431-51.63A173.264,173.264,0,0,0,494.107,0C449.959,0,408.3,15.955,368.822,31.907" transform="translate(-53.559 0)" fill="#636363"/>
    </clipPath>
    <clipPath id="clip-path-3">
      <path id="Path_29247" data-name="Path 29247" d="M35.2,466.669c88.3,128.7,530.952,162.6,616.228,0Z" transform="translate(-35.196 -466.669)" fill="#dcd8d8"/>
    </clipPath>
    <clipPath id="clip-path-4">
      <rect id="Rectangle_3377" data-name="Rectangle 3377" width="657.806" height="443.19" fill="#ece8e8"/>
    </clipPath>
    <clipPath id="clip-path-6">
      <path id="Path_29341" data-name="Path 29341" d="M453.143,354.692s99.373,42.569,117.568,44.564,128.311,0,128.311,0,16.236-7.641,15.7-18.565v-.007A57.992,57.992,0,0,0,694.6,369l-60.135-20.26c-10.483,3.156-49.106,10.063-181.321,5.956" transform="translate(-453.143 -348.736)" fill="none"/>
    </clipPath>
    <clipPath id="clip-path-7">
      <path id="Path_29342" data-name="Path 29342" d="M469.149,471.669c7,16.256,27.552,10.6,27.552,10.6-11.988-6.792-5.858-67.094-12.506-82.49s-46.088-32.891-46.088-32.891c48.386,34.991,24.044,88.526,31.042,104.782" transform="translate(-438.107 -366.887)" fill="none"/>
    </clipPath>
    <clipPath id="clip-path-9">
      <path id="Path_29350" data-name="Path 29350" d="M333.844,323.978q-1.616.105-3.254.378l-13.555,2.267a8.157,8.157,0,0,0-6.5,10.273l.036.119.006.034,2.24,7.831.182.658.036.125a8.154,8.154,0,0,0,7.845,5.921H361.69a5.014,5.014,0,0,0,3.569-1.442c.049-.049.1-.091.139-.139a5.142,5.142,0,0,0,1.064-5.48,33.183,33.183,0,0,0-4.416-7.768l-.007-.007a32.866,32.866,0,0,0-26.033-12.842c-.721,0-1.442.021-2.162.07" transform="translate(-310.219 -323.908)" fill="#424242"/>
    </clipPath>
    <clipPath id="clip-path-10">
      <path id="Path_29351" data-name="Path 29351" d="M324.552,324.356,311,326.624a8.153,8.153,0,0,0-6.5,10.273l.028.139,4.318-.02.006.034,2.24,7.831.182.658-4.429-.392.147.517a8.155,8.155,0,0,0,7.845,5.921h40.813A5.008,5.008,0,0,0,359.36,350a1.794,1.794,0,0,0,.189-.217,5.1,5.1,0,0,0,.875-5.263,32.543,32.543,0,0,0-4.409-7.754c0-.007,0-.007-.007-.014a32.869,32.869,0,0,0-23.884-12.779c-.713-.049-1.435-.07-2.155-.07a32.377,32.377,0,0,0-5.417.448" transform="translate(-304.189 -323.908)" fill="#fff"/>
    </clipPath>
    <clipPath id="clip-path-11">
      <path id="Path_29352" data-name="Path 29352" d="M304.667,342.266l.007.014,2.24,7.831.07.267,4.429.392-.182-.658-2.24-7.831-.006-.034Z" transform="translate(-304.667 -342.246)" fill="#424242"/>
    </clipPath>
    <clipPath id="clip-path-13">
      <path id="Path_29385" data-name="Path 29385" d="M467.55,383.964c-.214,3.581-1.525,2.569-2.941,1.556-1.508-1.077-3.134-2.155-3.679,2.31,0,0,1.876,29.466,4.855,31.448,1.458.971,1.885-2.77,2.951-6.511,1.112-3.9,2.917-7.8,7.311-6.36,8.606,2.826-.552-29.5-5.3-31.933a4.817,4.817,0,0,0-2-.659c-2.1,0-.843,4.12-1.2,10.148" transform="translate(-460.929 -373.816)" fill="none"/>
    </clipPath>
    <linearGradient id="linear-gradient" x1="-13.173" y1="3.746" x2="-13.144" y2="3.746" gradientUnits="objectBoundingBox">
      <stop offset="0" stop-color="#717272"/>
      <stop offset="0.05" stop-color="#717272"/>
      <stop offset="0.336" stop-color="#737474"/>
      <stop offset="0.491" stop-color="#7b7c7c"/>
      <stop offset="0.614" stop-color="#888989"/>
      <stop offset="0.721" stop-color="#9c9d9d"/>
      <stop offset="0.817" stop-color="#b5b5b5"/>
      <stop offset="0.906" stop-color="#d4d4d4"/>
      <stop offset="0.987" stop-color="#f8f8f8"/>
      <stop offset="1" stop-color="#fff"/>
    </linearGradient>
    <clipPath id="clip-path-14">
      <path id="Path_29386" data-name="Path 29386" d="M492.072,414.053s-.648,18.845,2.882,27.23-.33,42.04,3.2,47.006,8.607,8.363,8.827,10.747,3.531,2.6,2.538-1.367-6.179-8.827-7.834-15.007-2.222-36.575,1.7-37.542,3.7-5.6,3.594-11.118.773-22.951-5.3-24.5c-2.636-.671-4.8-1.46-6.406-1.46-2.088,0-3.223,1.336-3.207,6.007" transform="translate(-492.026 -408.046)" fill="none"/>
    </clipPath>
    <linearGradient id="linear-gradient-2" x1="-14.466" y1="1.608" x2="-14.436" y2="1.608" gradientUnits="objectBoundingBox">
      <stop offset="0" stop-color="#232528"/>
      <stop offset="0.05" stop-color="#232528"/>
      <stop offset="0.302" stop-color="#25272a"/>
      <stop offset="0.438" stop-color="#2d2f32"/>
      <stop offset="0.546" stop-color="#3a3c3f"/>
      <stop offset="0.64" stop-color="#4e4f52"/>
      <stop offset="0.725" stop-color="#67686a"/>
      <stop offset="0.803" stop-color="#868789"/>
      <stop offset="0.876" stop-color="#abacad"/>
      <stop offset="0.943" stop-color="#d4d5d5"/>
      <stop offset="1" stop-color="#fff"/>
    </linearGradient>
    <clipPath id="clip-path-16">
      <path id="Path_29432" data-name="Path 29432" d="M697.186,437.545a7.741,7.741,0,0,0,2.509,1.2c4.012,1.239,1.3,17.386,1.774,23.278h12.539c3.039-3.237,8.454-3.264,10.454,0h6.66a169.675,169.675,0,0,0,.762-21.629,25.413,25.413,0,0,1-.054-2.854Z" transform="translate(-697.186 -437.545)" fill="none"/>
    </clipPath>
    <linearGradient id="linear-gradient-3" x1="-11.961" y1="3.846" x2="-11.944" y2="3.846" gradientUnits="objectBoundingBox">
      <stop offset="0" stop-color="#232528"/>
      <stop offset="0.05" stop-color="#232528"/>
      <stop offset="0.523" stop-color="#494a4c"/>
      <stop offset="1" stop-color="#6d6d6d"/>
    </linearGradient>
    <clipPath id="clip-path-17">
      <path id="Path_29433" data-name="Path 29433" d="M703.178,471.8a3.194,3.194,0,0,0,.583,2.012c2.192,1.821,4.012,9.765,4.012,15.724s-.828,12.91,0,16.552,3.846,4.3,4.243-4.47-.311-24.495,3.119-29.13a6.283,6.283,0,0,1,.583-.688Z" transform="translate(-703.178 -471.795)" fill="none"/>
    </clipPath>
    <linearGradient id="linear-gradient-4" x1="-22.425" y1="2.638" x2="-22.393" y2="2.638" xlink:href="#linear-gradient-2"/>
    <clipPath id="clip-path-18">
      <path id="Path_29434" data-name="Path 29434" d="M735.344,471.8a5.254,5.254,0,0,1,.761,2.344c.536,5.793.7,12.413,3.35,9.93,1.126-1.052,1.979-6.216,2.549-12.274Z" transform="translate(-735.344 -471.795)" fill="none"/>
    </clipPath>
    <linearGradient id="linear-gradient-5" x1="-50.912" y1="6.666" x2="-50.843" y2="6.666" xlink:href="#linear-gradient-2"/>
    <clipPath id="clip-path-19">
      <path id="Path_29435" data-name="Path 29435" d="M683.4,402.978c1.37,10.394,1.979,14.3,4.455,16.2H722.5c.159-5.151,1.284-10.672-2.761-17.365-4.8-7.945,2.443-1.987,6.436,0s-3.933-9.819-7.667-13.023-12.976-12.248-19.279-13.023-34.77-2.628-34.77-2.628,17.193,16.6,18.941,29.839" transform="translate(-664.455 -373.139)" fill="none"/>
    </clipPath>
    <linearGradient id="linear-gradient-6" x1="-6.229" y1="2.99" x2="-6.22" y2="2.99" xlink:href="#linear-gradient-2"/>
  </defs>
  <g id="Group_6447" data-name="Group 6447" transform="translate(0 0)">
    <g id="Group_6446" data-name="Group 6446" clip-path="url(#clip-path)">
      <path id="Path_29228" data-name="Path 29228" d="M655.277,298.1a177.715,177.715,0,0,1-13.891,35.58c-88.622,161.834-516.066,129.377-616.226.011-36.03-45.714-28.8-116.6-6.776-169.716,33.622-87.3,126.222-113.3,210.774-100.723C311.083,72.338,402.81-14.888,508.917,2.683,622.629,21.515,669.7,190.05,655.277,298.1" transform="translate(0 -0.096)" fill="#f6f6f6"/>
      <path id="Path_29229" data-name="Path 29229" d="M898,403.127l-26.19-.7-7.091-.192-4.495-.123c-2.106-.055-3.8-2.071-3.8-4.5v-43.33c0-2.433,1.695-4.524,3.8-4.681l41.264-3.215c1.179,20.909-.474,47.168-3.488,56.747" transform="translate(-244.232 -98.78)" fill="#7d7d7d"/>
      <path id="Path_29230" data-name="Path 29230" d="M875.117,454.646H868.03V424.51l7.088.191Z" transform="translate(-247.542 -121.06)" fill="#7d7d7d"/>
      <path id="Path_29231" data-name="Path 29231" d="M881.607,375.5l-19.149.445v-5.087l19.149-.593Zm0,3.956-19.149.332v5.088l19.149-.185Zm0,9.19-19.149.073V393.8l19.149.075Zm0,9.191-19.149-.187v5.088l19.149.335Z" transform="translate(-245.953 -105.59)" fill="#303030"/>
      <path id="Path_29232" data-name="Path 29232" d="M904.354,439.518a161.013,161.013,0,0,1-7.088,15.354V425.3l7.088.191Z" transform="translate(-255.88 -121.286)" fill="#7d7d7d"/>
      <path id="Path_29233" data-name="Path 29233" d="M139.349,229.259V399.778H25.941c-.212-.273-.417-.54-.623-.814a137.768,137.768,0,0,1-12.943-20.39,77.655,77.655,0,0,1-4.33-10.25C3.3,354.618.558,336.648.558,316.791a226.5,226.5,0,0,1,7.488-57.514,201.328,201.328,0,0,1,10.5-30.018Z" transform="translate(-0.159 -65.379)" fill="#e8e8e8"/>
      <path id="Path_29234" data-name="Path 29234" d="M154.02,202.064V400.25h-7.494V221.5H25.722q1.837-4.161,3.886-8.227,2.88-5.71,6.19-11.213Z" transform="translate(-7.335 -57.624)" fill="#e8e8e8"/>
      <path id="Path_29235" data-name="Path 29235" d="M8.045,271.253V380.3C3.3,366.595.557,348.623.557,328.767a226.5,226.5,0,0,1,7.488-57.514" transform="translate(-0.159 -77.355)" fill="#dcd8d8"/>
      <path id="Path_29236" data-name="Path 29236" d="M162.025,190.555V388.741h-7.494V210H31.158a169.352,169.352,0,0,1,11.466-19.44Z" transform="translate(-8.886 -54.342)" fill="#e8e8e8"/>
      <path id="Path_29237" data-name="Path 29237" d="M228.071,194.513v75.375l47.912-.232V186.511Z" transform="translate(-65.041 -53.189)" fill="#636363"/>
      <path id="Path_29238" data-name="Path 29238" d="M231.248,202.207v64.757l29.507-.492,13.4-.225v-70.7Z" transform="translate(-65.947 -55.765)" fill="#ece8e8"/>
      <path id="Path_29239" data-name="Path 29239" d="M299.923,181.726v83.7l59.763-.287V171.742Z" transform="translate(-85.531 -48.977)" fill="#636363"/>
      <path id="Path_29240" data-name="Path 29240" d="M303.841,190.27v71.952l24.039-.4,25.429-.424,4.052-.069V181.961Z" transform="translate(-86.648 -51.891)" fill="#ece8e8"/>
      <path id="Path_29241" data-name="Path 29241" d="M389.632,165.616v94.105l76.625-.376V152.825Z" transform="translate(-111.114 -43.582)" fill="#636363"/>
      <path id="Path_29242" data-name="Path 29242" d="M439.611,168.264l-45.032,6.99v80.937l68.614-1.141V164.6Z" transform="translate(-112.525 -46.941)" fill="#ece8e8"/>
      <path id="Path_29243" data-name="Path 29243" d="M505.345,145.325V251.943l86.814-.426V130.833Z" transform="translate(-144.113 -37.31)" fill="#636363"/>
      <path id="Path_29244" data-name="Path 29244" d="M561.969,148.325l-51.021,7.92v91.7l77.738-1.293V144.175Z" transform="translate(-145.711 -41.115)" fill="#ece8e8"/>
      <path id="Path_29245" data-name="Path 29245" d="M608.622,54.216,173.394,128.639,53.559,127.26C96.112,69.371,173.131,52.553,244.433,63.155c81.924,9.087,173.814-79.184,279.758-60.568,28.79,5.059,62.643,21.027,84.431,51.629" transform="translate(-15.274 0)" fill="#e8e8e8"/>
    </g>
  </g>
  <g id="Group_6449" data-name="Group 6449" transform="translate(38.285 0)" opacity="0.11">
    <g id="Group_6448" data-name="Group 6448" clip-path="url(#clip-path-2)">
      <rect id="Rectangle_3337" data-name="Rectangle 3337" width="48.281" height="6.523" transform="translate(5.243 106.196)" fill="#636363"/>
      <rect id="Rectangle_3338" data-name="Rectangle 3338" width="48.281" height="6.523" transform="translate(63.404 106.196)" fill="#636363"/>
      <rect id="Rectangle_3339" data-name="Rectangle 3339" width="48.281" height="6.523" transform="translate(121.898 106.196)" fill="#636363"/>
      <rect id="Rectangle_3340" data-name="Rectangle 3340" width="48.281" height="6.523" transform="translate(180.874 106.196)" fill="#636363"/>
      <rect id="Rectangle_3341" data-name="Rectangle 3341" width="48.281" height="6.523" transform="translate(19.856 92.051)" fill="#636363"/>
      <rect id="Rectangle_3342" data-name="Rectangle 3342" width="48.281" height="6.523" transform="translate(78.017 92.051)" fill="#636363"/>
      <rect id="Rectangle_3343" data-name="Rectangle 3343" width="48.281" height="6.523" transform="translate(136.51 92.051)" fill="#636363"/>
      <rect id="Rectangle_3344" data-name="Rectangle 3344" width="48.281" height="6.523" transform="translate(195.486 92.051)" fill="#636363"/>
      <rect id="Rectangle_3345" data-name="Rectangle 3345" width="48.281" height="6.523" transform="translate(253.646 92.051)" fill="#636363"/>
      <rect id="Rectangle_3346" data-name="Rectangle 3346" width="48.281" height="6.523" transform="translate(41.444 77.992)" fill="#636363"/>
      <rect id="Rectangle_3347" data-name="Rectangle 3347" width="48.281" height="6.523" transform="translate(99.939 77.992)" fill="#636363"/>
      <rect id="Rectangle_3348" data-name="Rectangle 3348" width="48.281" height="6.523" transform="translate(158.914 77.992)" fill="#636363"/>
      <rect id="Rectangle_3349" data-name="Rectangle 3349" width="48.281" height="6.523" transform="translate(217.075 77.992)" fill="#636363"/>
      <rect id="Rectangle_3350" data-name="Rectangle 3350" width="48.281" height="6.523" transform="translate(275.569 77.992)" fill="#636363"/>
      <rect id="Rectangle_3351" data-name="Rectangle 3351" width="48.281" height="6.523" transform="translate(334.812 77.992)" fill="#636363"/>
      <rect id="Rectangle_3352" data-name="Rectangle 3352" width="48.281" height="6.523" transform="translate(63.357 63.847)" fill="#636363"/>
      <rect id="Rectangle_3353" data-name="Rectangle 3353" width="48.281" height="6.523" transform="translate(121.852 63.847)" fill="#636363"/>
      <rect id="Rectangle_3354" data-name="Rectangle 3354" width="48.281" height="6.523" transform="translate(180.827 63.847)" fill="#636363"/>
      <rect id="Rectangle_3355" data-name="Rectangle 3355" width="48.281" height="6.523" transform="translate(238.988 63.847)" fill="#636363"/>
      <rect id="Rectangle_3356" data-name="Rectangle 3356" width="48.281" height="6.523" transform="translate(297.482 63.847)" fill="#636363"/>
      <rect id="Rectangle_3357" data-name="Rectangle 3357" width="48.281" height="6.523" transform="translate(356.725 63.847)" fill="#636363"/>
      <rect id="Rectangle_3358" data-name="Rectangle 3358" width="48.281" height="6.523" transform="translate(414.885 63.847)" fill="#636363"/>
      <rect id="Rectangle_3359" data-name="Rectangle 3359" width="48.281" height="6.523" transform="translate(253.668 49.936)" fill="#636363"/>
      <rect id="Rectangle_3360" data-name="Rectangle 3360" width="48.281" height="6.523" transform="translate(312.911 49.936)" fill="#636363"/>
      <rect id="Rectangle_3361" data-name="Rectangle 3361" width="48.281" height="6.523" transform="translate(371.071 49.936)" fill="#636363"/>
      <rect id="Rectangle_3362" data-name="Rectangle 3362" width="48.281" height="6.523" transform="translate(429.565 49.936)" fill="#636363"/>
      <rect id="Rectangle_3363" data-name="Rectangle 3363" width="48.281" height="6.523" transform="translate(488.541 49.936)" fill="#636363"/>
      <rect id="Rectangle_3364" data-name="Rectangle 3364" width="48.281" height="6.523" transform="translate(297.482 35.791)" fill="#636363"/>
      <rect id="Rectangle_3365" data-name="Rectangle 3365" width="48.281" height="6.523" transform="translate(356.725 35.791)" fill="#636363"/>
      <rect id="Rectangle_3366" data-name="Rectangle 3366" width="48.281" height="6.523" transform="translate(414.885 35.791)" fill="#636363"/>
      <rect id="Rectangle_3367" data-name="Rectangle 3367" width="48.281" height="6.523" transform="translate(473.379 35.791)" fill="#636363"/>
      <rect id="Rectangle_3368" data-name="Rectangle 3368" width="48.281" height="6.523" transform="translate(311.778 21.036)" fill="#636363"/>
      <rect id="Rectangle_3369" data-name="Rectangle 3369" width="48.281" height="6.523" transform="translate(371.021 21.036)" fill="#636363"/>
      <rect id="Rectangle_3370" data-name="Rectangle 3370" width="48.281" height="6.523" transform="translate(429.181 21.036)" fill="#636363"/>
      <rect id="Rectangle_3371" data-name="Rectangle 3371" width="48.281" height="6.523" transform="translate(487.676 21.036)" fill="#636363"/>
      <rect id="Rectangle_3372" data-name="Rectangle 3372" width="48.281" height="6.523" transform="translate(326.074 6.28)" fill="#636363"/>
      <rect id="Rectangle_3373" data-name="Rectangle 3373" width="48.281" height="6.523" transform="translate(385.318 6.28)" fill="#636363"/>
      <rect id="Rectangle_3374" data-name="Rectangle 3374" width="48.281" height="6.523" transform="translate(443.478 6.28)" fill="#636363"/>
      <rect id="Rectangle_3375" data-name="Rectangle 3375" width="48.281" height="6.523" transform="translate(501.972 6.28)" fill="#636363"/>
    </g>
  </g>
  <g id="Group_6451" data-name="Group 6451" transform="translate(25.159 333.586)">
    <g id="Group_6450" data-name="Group 6450" clip-path="url(#clip-path-3)">
      <rect id="Rectangle_3376" data-name="Rectangle 3376" width="616.228" height="162.602" transform="translate(0)" fill="#dcd8d8"/>
    </g>
  </g>
  <g id="Group_6453" data-name="Group 6453" transform="translate(0 0)">
    <g id="Group_6452" data-name="Group 6452" clip-path="url(#clip-path-4)">
      <path id="Path_29248" data-name="Path 29248" d="M639.216,486.568a180.918,180.918,0,0,1-28.68,23.649c-46.621,16.344-144.684,27.606-258.106,27.606-94.746,0-178.772-7.858-231.048-19.973a263.5,263.5,0,0,1-33.976-19.215q-8.312-5.585-15.79-11.712c-1.51-1.237-2.992-2.48-4.449-3.758,5.906-9.048,26.17-17.349,56.8-24.23,52.44-11.78,135.262-19.385,228.459-19.385s176.012,7.605,228.453,19.385c34.433,7.735,55.764,17.267,58.333,27.633" transform="translate(-19.154 -125.35)" fill="#ece8e8"/>
      <path id="Path_29249" data-name="Path 29249" d="M609.938,553.314l-11.685,5.562c-29.1,1.653-92.2,1.8-200.5,1.278-85-.417-165.465-.4-223.547-.287q-4.26-1.547-8.428-3.184-1.192-.462-2.364-.936c-.6-.24-1.2-.485-1.8-.724q-7.557-3.075-14.757-6.416c78.777-7.872,193.39-5.733,225.625-4.551,38.419,1.415,200.085,4.8,237.457,9.259" transform="translate(-41.88 -154.815)" fill="#ece8e8"/>
    </g>
  </g>
  <g id="Group_6455" data-name="Group 6455" transform="translate(0 0)">
    <g id="Group_6454" data-name="Group 6454" clip-path="url(#clip-path)">
      <path id="Path_29250" data-name="Path 29250" d="M736.19,528.556,733.345,536s-14.678-5.245-14.678,9.031l28.181.245-1.528-13.3Z" transform="translate(-204.947 -150.732)" fill="#6d6d6d"/>
      <path id="Path_29251" data-name="Path 29251" d="M846.527,524l7.614,10.541-7.614,9.434H826.421s-3.506-7.945,10.948-9.379l4.027-4.524Z" transform="translate(-235.569 -149.432)" fill="#6d6d6d"/>
      <path id="Path_29252" data-name="Path 29252" d="M786.772,327.414c-.093,5.779-1.708,13.652-4.058,22.172-6.866,24.847-20.027,55.215-20.027,55.215l-10.461,68.436-.033.212-.443-.106h-.007l-7.011-1.642-5.674-1.331,2.781-68.549,9.579-56.665v-.006l4.264-25.224s31.441-15.134,31.09,7.488" transform="translate(-210.762 -89.822)" fill="#d1683f"/>
      <path id="Path_29253" data-name="Path 29253" d="M784.977,362.559c-6.865,24.847-20.027,55.215-20.027,55.215L754.49,486.21l-.006.006-.47.1h-.006L747,484.674c3.224-13.863,15.154-65.391,14.154-64.96-1.125.483-5.912,1.583-6.21,1.649a68.844,68.844,0,0,0,7.037-11.871c1.761-3.886,3.919-23.5,5.4-38.921a11.16,11.16,0,0,1,17.6-8.011" transform="translate(-213.026 -102.795)" fill="#ff9540"/>
      <path id="Path_29254" data-name="Path 29254" d="M835.431,468.3l-5.448,2.032-7.21,2.695a.02.02,0,0,0-.007-.014v-.006L796.8,410.5l-17.2-62.63c-.02-.066-.033-.1-.033-.1l-2.543-9.262-.244-.9-1.973-7.183s19.2-26.753,30.765-7.514c.483.808.946,1.682,1.4,2.628,10.175,21.5,10.228,76.215,10.228,76.215Z" transform="translate(-220.957 -90.101)" fill="#d1683f"/>
      <path id="Path_29255" data-name="Path 29255" d="M835.431,472.13l-5.448,2.032-13.347-49.693L813.6,407.9l-5.065,3.8s2.092-28.276-5.19-48.25c-5.853-16.061-20.689-20.06-26.317-21.119-1.377-.258-2.2-.345-2.217-.391a10.3,10.3,0,0,1,1.973-.51c2.853-.6,7.805-1.516,7.805-1.516l22.384-10.553c10.175,21.5,10.228,76.215,10.228,76.215Z" transform="translate(-220.957 -93.926)" fill="#ff9540"/>
      <path id="Path_29256" data-name="Path 29256" d="M824.679,485.746l-25.965-62.517-17.2-62.63c.9,2.668,20.159,59.6,21.278,62.411,1.125,2.834,21.457,61.491,21.887,62.736" transform="translate(-222.87 -102.835)" fill="#ff9540"/>
      <path id="Path_29257" data-name="Path 29257" d="M751.418,357.2l-7.481,56.9-4.879,68.311,2.781-68.549Z" transform="translate(-210.762 -101.865)" fill="#ff9540"/>
      <path id="Path_29258" data-name="Path 29258" d="M724.607,246.706s-3.674,14.241-7.356,25.992c-1.33,4.244-2.661,8.17-3.82,10.977-.238.576-.47,1.106-.688,1.576a31.947,31.947,0,0,1-2.019,3.741,19.925,19.925,0,0,1-4.164,3.528l-1.814.311c-6.9,1.172-31.56,5.283-40.412,5.7-6.561.311-9.308,1.45-9.851,1.066-.318-.212.093-.934.927-2.6,1.734-3.476,32.129-14.168,46.555-19.087,2.277-15.968,8.236-41.245,8.236-41.245,13.181-5.2,14.407,10.043,14.407,10.043" transform="translate(-186.613 -67.183)" fill="#ff9540"/>
      <path id="Path_29259" data-name="Path 29259" d="M717.295,286.236c-1.331,4.244-2.661,8.17-3.82,10.977-.238.576-.47,1.106-.688,1.576a31.9,31.9,0,0,1-2.019,3.741,19.893,19.893,0,0,1-4.165,3.528l-1.813.312c-6.9,1.172-31.56,5.283-40.412,5.7-6.561.311-9.308,1.45-9.851,1.066,12.83-2.337,41.245-7.706,47.1-10.334,7.614-3.423,9.043-19.749,9.043-19.749Z" transform="translate(-186.656 -80.72)" fill="#ff9540"/>
      <path id="Path_29260" data-name="Path 29260" d="M719.683,270.856s11.718,9.156,20.643,2.761c0,0,1-2.337,2.237-5.919,3.728-10.719,9.659-32.553-2.237-36.214-7.329-2.258-12.486-1.662-17.5,21.636-.953,4.409-1.616,7.759-2.079,10.295a50.868,50.868,0,0,0-1.066,7.441" transform="translate(-205.237 -65.767)" fill="#d1683f"/>
      <path id="Path_29261" data-name="Path 29261" d="M719.683,283.939S731.4,293.1,740.326,286.7c0,0,1-2.337,2.237-5.919-5.343,1.794-14.221,3.019-21.814-4.283a50.868,50.868,0,0,0-1.066,7.441" transform="translate(-205.237 -78.851)" fill="#727272"/>
      <path id="Path_29262" data-name="Path 29262" d="M778.466,299.421a12.674,12.674,0,0,1-1.132,8.726v.006c-7.19,2.013-16.69,3.052-28.547,1.033,0,0-.907-1.734-2.357-4.754-1.139-2.37-2.608-5.535-4.223-9.268-.94-2.152-1.927-4.5-2.926-6.992l-.02-.039c-2.45-6.1-5.005-13.089-7.15-20.352-5.833-19.728-8.673-41.477,1.568-52.951l.007-.006a20.835,20.835,0,0,1,3.29-2.986c19.385-14.188,29.673,3.152,32.473,9.792,6.661,15.8,7.72,37.975,19.71,58.439a74.217,74.217,0,0,1,4.72,9.262c-2.588,3.271-7.2,7.1-15.412,10.09" transform="translate(-207.283 -58.863)" fill="#ff9540"/>
      <path id="Path_29263" data-name="Path 29263" d="M796.6,289.331c-2.589,3.27-7.2,7.1-15.413,10.09-.152-.861-.324-1.616-.384-2.257-.225-2.317-3.972-5.959-2.979-16.22s-8.937-.663-16.419,5.468-6.077-10.15-6.077-10.15,9.254-31.4,7.6-46.3-26.521-15.141-26.521-15.141a20.842,20.842,0,0,1,3.291-2.986c19.384-14.188,29.672,3.151,32.472,9.792,6.661,15.8,7.72,37.975,19.71,58.439a74.139,74.139,0,0,1,4.721,9.262" transform="translate(-210.007 -58.863)" fill="#d1683f"/>
      <path id="Path_29264" data-name="Path 29264" d="M785.142,345.254v.006c-7.19,2.013-16.69,3.052-28.547,1.033,0,0-.907-1.734-2.357-4.754,14.36-.3,24.655-2.31,32.037-5.012a12.674,12.674,0,0,1-1.132,8.726" transform="translate(-215.091 -95.97)" fill="#727272"/>
      <path id="Path_29265" data-name="Path 29265" d="M657.438,319.879s-11.586-1.987-12.579-1.076,7.862,10.344,7.862,10.344,6.124-7.808,6.124-7.834-1.407-1.434-1.407-1.434" transform="translate(-183.877 -90.847)" fill="#ff9540"/>
      <path id="Path_29266" data-name="Path 29266" d="M814.294,332.509s-5.568,5.568-16.823,8.726v-.006A12.674,12.674,0,0,0,798.6,332.5c8.209-2.986,12.824-6.819,15.412-10.09,3.834,9.361.278,10.1.278,10.1" transform="translate(-227.42 -91.945)" fill="#ff9540"/>
      <path id="Path_29267" data-name="Path 29267" d="M733.679,218.191c-.185.5-8.607,23.357-1.569,52.951-5.832-19.729-8.673-41.478,1.569-52.951" transform="translate(-207.283 -62.223)" fill="#727272"/>
      <path id="Path_29268" data-name="Path 29268" d="M747.161,327.784c-.94-2.152-1.926-4.5-2.927-6.991a75.224,75.224,0,0,1,2.927,6.991" transform="translate(-212.239 -91.483)" fill="#ff9540"/>
      <path id="Path_29269" data-name="Path 29269" d="M753.664,203.724l-4.084,2.6-5.892,3.748a2.979,2.979,0,0,1-4.509-3.139l1.5-7.018.2-.934.986-4.6,1.642-7.647,2.562-2.21,6.157-5.31.7,11.837Z" transform="translate(-210.777 -51.106)" fill="#ff9540"/>
      <path id="Path_29270" data-name="Path 29270" d="M753.578,162.478c-.337,6.674-2.714,14.935-3.78,18.392a5.563,5.563,0,0,1-1.225,1.9c-2.3,2.562-7.276,5.852-12.043,7.932a22.62,22.62,0,0,1-6.984,2.012h-.006c-1.861.139-3.29-.284-3.939-1.49-3-5.581-1.218-23.688-1.218-23.688,3.714-24.774,26.707-17.637,28.687-11.149a18.322,18.322,0,0,1,.51,6.091" transform="translate(-206.427 -42.831)" fill="#ff9540"/>
      <path id="Path_29271" data-name="Path 29271" d="M752.067,185.434a5.571,5.571,0,0,1-1.224,1.9l.741,12.678-4.085,2.6c.047-3.2-.106-8.316-1.476-9.434-.9-.735-4.118.94-7.421,3.026l.2-.934a22.624,22.624,0,0,1-6.985,2.012q.636-.387,1.351-.794a21.63,21.63,0,0,0,6.621-5.819,23.753,23.753,0,0,0,4.2-9.858,36.536,36.536,0,0,0-.41-14.612l12.267.848c-.337,6.674-2.714,14.936-3.78,18.392" transform="translate(-208.697 -47.395)" fill="#ff9540"/>
      <path id="Path_29272" data-name="Path 29272" d="M750.388,161.348v12.895l2.409-.757s1.753-6.4,4.608-6.731-.2,9.366-.2,9.366,5.785-9.366,6.668-14.773-10.372-11.7-16.882-9.6,3.392,9.6,3.392,9.6" transform="translate(-212.394 -43.157)" fill="#262626"/>
      <path id="Path_29273" data-name="Path 29273" d="M758.661,178.983c-.313,2.721.635,5.065,2.119,5.235s2.939-1.9,3.252-4.617-.635-5.065-2.118-5.236-2.939,1.9-3.252,4.618" transform="translate(-216.336 -49.722)" fill="#ff9540"/>
      <path id="Path_29274" data-name="Path 29274" d="M758.462,179.137c-.313,2.721.388,5.037,1.567,5.172s2.387-1.961,2.7-4.681-.388-5.037-1.567-5.172-2.387,1.961-2.7,4.681" transform="translate(-216.275 -49.749)" fill="#ff9540"/>
      <path id="Path_29275" data-name="Path 29275" d="M737.532,183.033c0,1.478-.856,2.676-1.911,2.676s-1.911-1.2-1.911-2.676.856-2.676,1.911-2.676,1.911,1.2,1.911,2.676" transform="translate(-209.237 -51.434)" fill="#262626"/>
      <path id="Path_29276" data-name="Path 29276" d="M735.587,185.017c0,.335-.194.607-.434.607s-.434-.272-.434-.607.194-.607.434-.607.434.272.434.607" transform="translate(-209.525 -52.589)" fill="#fff"/>
      <path id="Path_29277" data-name="Path 29277" d="M728.253,179.473c0,1.225-.71,2.219-1.585,2.219s-1.585-.994-1.585-2.219.71-2.219,1.585-2.219,1.585.994,1.585,2.219" transform="translate(-206.777 -50.549)" fill="#262626"/>
      <path id="Path_29278" data-name="Path 29278" d="M726.955,181.428c0,.335-.194.607-.434.607s-.434-.272-.434-.607.194-.607.434-.607.434.272.434.607" transform="translate(-207.063 -51.566)" fill="#fff"/>
      <path id="Path_29279" data-name="Path 29279" d="M726.672,190.572a2.653,2.653,0,0,1-1.3-.3,1.987,1.987,0,0,1-.964-1.3c-.515-2.008,3.227-5.365,3.984-6.017l.628.728c-1.691,1.462-3.951,3.994-3.681,5.05a1.052,1.052,0,0,0,.5.7,2.493,2.493,0,0,0,1.678.062l.283.919a4.17,4.17,0,0,1-1.132.159" transform="translate(-206.572 -52.174)" fill="#ff9540"/>
      <path id="Path_29280" data-name="Path 29280" d="M725.756,194.965s8.028.083,8.441.662-3.352,4.965-5.959,3.931-2.483-4.593-2.483-4.593" transform="translate(-206.969 -55.6)" fill="#fff"/>
      <path id="Path_29281" data-name="Path 29281" d="M730.608,156.455s-32,1.732-25.516,11.319c9.266,13.7,38.624-1.3,38.624-1.3Z" transform="translate(-200.829 -44.617)" fill="#727272"/>
      <path id="Path_29282" data-name="Path 29282" d="M734.346,157.335s-33.488-.609-27,8.977c9.266,13.7,38.051-.054,38.051-.054Z" transform="translate(-201.48 -44.866)" fill="#d1683f"/>
      <path id="Path_29283" data-name="Path 29283" d="M758.1,160.957a50.788,50.788,0,0,1-10.262,1.655,65.889,65.889,0,0,1-14.432-.8,7.882,7.882,0,0,1-6.621-5.76,6.57,6.57,0,0,1,.741-4.826c2.563-4.476,6.9-9.1,13.943-9.335a18.81,18.81,0,0,1,3.9.292c.45.079.907.172,1.377.285,18.219,4.39,11.354,18.491,11.354,18.491" transform="translate(-207.213 -40.461)" fill="#ff9540"/>
      <path id="Path_29284" data-name="Path 29284" d="M765.58,161.077a50.788,50.788,0,0,1-10.262,1.655c2.754-11.294.265-17.312-2.469-20.43.45.079.907.172,1.377.285,18.219,4.39,11.354,18.491,11.354,18.491" transform="translate(-214.695 -40.581)" fill="#d1683f"/>
      <path id="Path_29285" data-name="Path 29285" d="M741.466,141.893a30.6,30.6,0,0,0-13.77,12.738,11.106,11.106,0,0,1-.914,1.423,6.563,6.563,0,0,1,.741-4.826c2.562-4.476,6.9-9.1,13.943-9.335" transform="translate(-207.212 -40.465)" fill="#727272"/>
      <rect id="Rectangle_3378" data-name="Rectangle 3378" width="90.461" height="64.441" transform="translate(59.552 279.78)" fill="#262626"/>
      <rect id="Rectangle_3379" data-name="Rectangle 3379" width="90.461" height="64.441" transform="translate(229.54 299.804)" fill="#7d7d7d"/>
      <path id="Path_29286" data-name="Path 29286" d="M132.306,467.112c0,21.092-8.412,39.259,2.977,47.505v4.723h30.061c18.238,0,33.028-23.38,33.028-52.228s-14.79-52.228-33.028-52.228H135.282v4.723c-11.389,8.245-2.977,26.414-2.977,47.505" transform="translate(-36.877 -118.315)" fill="#262626"/>
      <path id="Path_29287" data-name="Path 29287" d="M99.111,467.112c0,28.845,12.562,52.228,28.06,52.228s28.059-23.383,28.059-52.228-12.562-52.228-28.059-52.228-28.06,23.383-28.06,52.228" transform="translate(-28.264 -118.315)" fill="#232323"/>
      <path id="Path_29288" data-name="Path 29288" d="M114.508,471.5c0,24.781,10.266,41.226,17.054,41.226,2.764,0,6.11-2.729,9.1-7.642v-.006c.574-.938,1.134-1.953,1.666-3.044,0,0,.007,0,0-.007.3-.595.588-1.21.868-1.854.532-1.2,1.036-2.478,1.512-3.835v-.007c.245-.714.49-1.442.721-2.2a77.521,77.521,0,0,0,3.192-22.632c0-1.281-.029-2.54-.077-3.779q-.053-1.112-.126-2.2c-.168-2.478-.448-4.85-.8-7.117-.105-.686-.224-1.357-.35-2.022-1.518-8.146-4.164-14.724-7.089-19.238-2.855-4.423-5.99-6.865-8.608-6.865-6.788,0-17.054,16.439-17.054,41.226" transform="translate(-32.655 -122.705)" fill="#7d7d7d"/>
      <path id="Path_29289" data-name="Path 29289" d="M123.858,478.027c3.461,2.391,8.95,4.359,9.261,2.324s-4.674-7.3-8.135-9.694-4.087-1-4.4,1.036-.189,3.943,3.272,6.334" transform="translate(-34.357 -133.862)" fill="#232323"/>
      <path id="Path_29290" data-name="Path 29290" d="M132.527,513.276c2.139-6.259,4.716-16.75,3.9-18.008s-4.711,7.195-6.85,13.454-1.71,7.955-.9,9.213,1.706,1.6,3.844-4.658" transform="translate(-36.507 -141.203)" fill="#232323"/>
      <path id="Path_29291" data-name="Path 29291" d="M148.868,513.278c1.427,4.178,2.3,5.416,2.967,5.4.532-1.2,1.036-2.478,1.512-3.835v-.007a27.645,27.645,0,0,0-1.533-6.109c-2.142-6.257-6.032-14.71-6.852-13.451s1.763,11.75,3.905,18.006" transform="translate(-41.296 -141.204)" fill="#232323"/>
      <path id="Path_29292" data-name="Path 29292" d="M146.643,480.414c.308,2.037,5.8.07,9.258-2.323a13.037,13.037,0,0,0,1.673-1.351c-.168-2.477-.448-4.849-.8-7.117a8.969,8.969,0,0,0-1.994,1.1c-3.457,2.393-8.447,7.656-8.132,9.692" transform="translate(-41.815 -133.926)" fill="#232323"/>
      <path id="Path_29293" data-name="Path 29293" d="M156.884,506.562c.259.917.462,1.75.609,2.513a77.53,77.53,0,0,0,3.191-22.632c0-1.281-.028-2.54-.077-3.779-.028.021-.049.049-.076.07a1.238,1.238,0,0,0-.259.9c.035.861.056,1.736.056,2.618a51.821,51.821,0,0,1-3.4,19.265,1.723,1.723,0,0,0-.042,1.05" transform="translate(-44.722 -137.644)" fill="#414244"/>
      <path id="Path_29294" data-name="Path 29294" d="M133.21,444.745c-3.7,1.808-6.84,6.789-8.746,13.517-.094.332-.277.5-.455.412a3.93,3.93,0,0,0-1.7-.5,1.741,1.741,0,0,0-.8.184c-.339.171-.618-.59-.462-1.251,2.439-10.325,7.13-17.83,12.7-19.6.345-.109.6.691.415,1.327a23.232,23.232,0,0,0-.635,5.124.938.938,0,0,1-.325.788" transform="translate(-34.509 -124.764)" fill="#414244"/>
      <path id="Path_29295" data-name="Path 29295" d="M145.363,438.83a22.957,22.957,0,0,1,.637,5.13.911.911,0,0,0,.329.784c3.7,1.8,6.837,6.788,8.741,13.52.1.329.28.5.455.406s.357-.168.518-.231c-1.519-8.146-4.164-14.725-7.09-19.238a10.476,10.476,0,0,0-3.17-1.693c-.35-.112-.595.693-.42,1.322" transform="translate(-41.438 -124.764)" fill="#414244"/>
      <path id="Path_29296" data-name="Path 29296" d="M119.5,478.624a7.694,7.694,0,0,0,2.093,2.874,1.219,1.219,0,0,1,.256.891q-.055,1.293-.056,2.616a51.951,51.951,0,0,0,3.4,19.27,1.727,1.727,0,0,1,.045,1.044,21.265,21.265,0,0,0-.906,4.894v.026c-.031.757-.455,1.1-.708.568-3.132-6.574-5.073-15.706-5.073-25.8,0-2.029.079-4.018.229-5.956.057-.733.495-.989.723-.425" transform="translate(-33.806 -136.405)" fill="#414244"/>
      <path id="Path_29297" data-name="Path 29297" d="M131.389,530.667c2.337,2.561,5,4.01,7.81,4.01a9.665,9.665,0,0,0,6.207-2.478v-.007c.574-.938,1.134-1.952,1.666-3.044,0,0,.007,0,0-.007a.611.611,0,0,0-.112-.154,10.137,10.137,0,0,1-1.869-3.331c-.119-.294-.308-.385-.476-.231a7.422,7.422,0,0,1-10.84,0c-.161-.154-.357-.063-.475.231a10.028,10.028,0,0,1-1.883,3.325,1.536,1.536,0,0,0-.028,1.686" transform="translate(-37.401 -149.818)" fill="#414244"/>
      <path id="Path_29298" data-name="Path 29298" d="M139.856,447.549c0,7.736.816,19.445,1.823,19.445s1.822-11.708,1.822-19.445-.816-8.572-1.822-8.572-1.823.836-1.823,8.572" transform="translate(-39.884 -125.186)" fill="#232323"/>
      <path id="Path_29299" data-name="Path 29299" d="M139.856,486.4c0-2.14.816-3.874,1.823-3.874s1.822,1.734,1.822,3.874-.816,3.874-1.822,3.874-1.823-1.734-1.823-3.874" transform="translate(-39.884 -137.606)" fill="#232323"/>
      <path id="Path_29300" data-name="Path 29300" d="M406.468,467.112c0,21.092-8.412,39.259,2.977,47.505v4.723h28.063c18.238,0,33.028-23.38,33.028-52.228s-14.79-52.228-33.028-52.228H409.444v4.723c-11.389,8.245-2.977,26.414-2.977,47.505" transform="translate(-115.062 -118.315)" fill="#262626"/>
      <path id="Path_29301" data-name="Path 29301" d="M360.2,467.112c0,28.845,16.523,52.228,36.906,52.228s36.906-23.383,36.906-52.228-16.523-52.228-36.906-52.228S360.2,438.267,360.2,467.112" transform="translate(-102.72 -118.315)" fill="#232323"/>
      <path id="Path_29302" data-name="Path 29302" d="M375.589,471.5c0,22.345,11.862,41.226,25.9,41.226a17.818,17.818,0,0,0,10.63-3.772l.007-.007a28.1,28.1,0,0,0,4.836-4.632c.49-.6.972-1.225,1.448-1.876v-.007a41.276,41.276,0,0,0,2.31-3.639c.42-.742.818-1.5,1.2-2.3a57.6,57.6,0,0,0,5.473-25q0-2.32-.168-4.577c-.056-.8-.133-1.609-.224-2.4a58.38,58.38,0,0,0-1.273-7.278c-.175-.742-.365-1.477-.574-2.2-2.8-9.924-8.027-17.916-14.4-21.939a17.294,17.294,0,0,0-9.273-2.834c-14.038,0-25.9,18.881-25.9,41.226" transform="translate(-107.109 -122.705)" fill="#7d7d7d"/>
      <path id="Path_29303" data-name="Path 29303" d="M388.717,477.246c5.256,2.579,13.592,4.7,14.065,2.507s-7.1-7.878-12.354-10.457-6.207-1.078-6.679,1.118-.288,4.253,4.968,6.832" transform="translate(-109.388 -133.445)" fill="#232323"/>
      <path id="Path_29304" data-name="Path 29304" d="M401.881,515.271c3.248-6.752,7.162-18.069,5.925-19.426s-7.155,7.761-10.4,14.512-2.6,8.581-1.36,9.938,2.59,1.727,5.838-5.024" transform="translate(-112.654 -141.365)" fill="#232323"/>
      <path id="Path_29305" data-name="Path 29305" d="M426.693,515.273c2.19,4.556,3.52,5.872,4.535,5.829v-.007a41.448,41.448,0,0,0,2.31-3.639c-.063-1.463-.7-3.632-2.365-7.1-3.247-6.753-9.168-15.871-10.406-14.514s2.68,12.674,5.927,19.427" transform="translate(-119.926 -141.365)" fill="#232323"/>
      <path id="Path_29306" data-name="Path 29306" d="M423.316,479.772c.469,2.2,8.8.077,14.059-2.505a16.339,16.339,0,0,0,3.233-1.98,58.373,58.373,0,0,0-1.274-7.278,13.228,13.228,0,0,0-3.667,1.309c-5.255,2.575-12.828,8.258-12.351,10.455" transform="translate(-120.714 -133.465)" fill="#232323"/>
      <path id="Path_29307" data-name="Path 29307" d="M438.872,507.826a22.8,22.8,0,0,1,1.071,3.3,57.6,57.6,0,0,0,5.473-25q0-2.319-.168-4.576c-.273.2-.553.4-.847.58a1.064,1.064,0,0,0-.385.959c.056.931.084,1.869.084,2.821a41.926,41.926,0,0,1-5.165,20.791,1.346,1.346,0,0,0-.063,1.127" transform="translate(-125.129 -137.326)" fill="#414244"/>
      <path id="Path_29308" data-name="Path 29308" d="M402.918,441.343c-5.621,1.95-10.388,7.323-13.282,14.581-.142.358-.42.54-.69.444a7.908,7.908,0,0,0-2.58-.535,3.552,3.552,0,0,0-1.208.2c-.514.184-.939-.637-.7-1.35,3.7-11.138,10.827-19.234,19.29-21.148.524-.119.9.746.63,1.431a18.256,18.256,0,0,0-.966,5.527.917.917,0,0,1-.493.851" transform="translate(-109.619 -123.631)" fill="#414244"/>
      <path id="Path_29309" data-name="Path 29309" d="M421.38,434.967a18.345,18.345,0,0,1,.966,5.521.918.918,0,0,0,.49.854c5.626,1.952,10.392,7.32,13.283,14.584.147.357.42.539.693.441a9.911,9.911,0,0,1,1.379-.392c-2.8-9.924-8.027-17.916-14.4-21.939a16.136,16.136,0,0,0-1.785-.5c-.525-.119-.9.748-.63,1.435" transform="translate(-120.142 -123.63)" fill="#414244"/>
      <path id="Path_29310" data-name="Path 29310" d="M382.093,477.889a9.155,9.155,0,0,0,3.179,3.1,1.076,1.076,0,0,1,.388.961q-.083,1.395-.084,2.822a42,42,0,0,0,5.162,20.788,1.355,1.355,0,0,1,.068,1.126,17.137,17.137,0,0,0-1.377,5.279v.029c-.046.816-.69,1.189-1.076.613-4.756-7.092-7.7-16.943-7.7-27.836a59.081,59.081,0,0,1,.349-6.424c.087-.791.751-1.067,1.1-.459" transform="translate(-108.552 -136.189)" fill="#414244"/>
      <path id="Path_29311" data-name="Path 29311" d="M400.155,534.035a19.207,19.207,0,0,0,11.855,4.325,17.9,17.9,0,0,0,7.012-1.448l.007-.007a28.078,28.078,0,0,0,4.836-4.633.407.407,0,0,0-.063-.049,10.683,10.683,0,0,1-2.834-3.6.5.5,0,0,0-.735-.244,14.624,14.624,0,0,1-16.453,0,.5.5,0,0,0-.728.244,10.556,10.556,0,0,1-2.862,3.59,1.284,1.284,0,0,0-.035,1.82" transform="translate(-114.012 -150.659)" fill="#414244"/>
      <path id="Path_29312" data-name="Path 29312" d="M413.01,444.369c0,8.346,1.239,20.976,2.768,20.976s2.768-12.63,2.768-20.976-1.24-9.247-2.768-9.247-2.768.9-2.768,9.247" transform="translate(-117.781 -124.087)" fill="#232323"/>
      <path id="Path_29313" data-name="Path 29313" d="M413.011,486.281c0-2.308,1.239-4.18,2.768-4.18s2.768,1.871,2.768,4.18-1.24,4.18-2.768,4.18-2.768-1.871-2.768-4.18" transform="translate(-117.781 -137.484)" fill="#232323"/>
      <path id="Path_29314" data-name="Path 29314" d="M693.807,467.112c0,21.092-8.412,39.259,2.977,47.505v4.723h28.063c18.238,0,33.028-23.38,33.028-52.228s-14.79-52.228-33.028-52.228H696.783v4.723c-11.389,8.245-2.977,26.414-2.977,47.505" transform="translate(-197.005 -118.315)" fill="#262626"/>
      <path id="Path_29315" data-name="Path 29315" d="M647.535,467.112c0,28.845,16.523,52.228,36.906,52.228s36.906-23.383,36.906-52.228-16.523-52.228-36.906-52.228-36.906,23.383-36.906,52.228" transform="translate(-184.662 -118.315)" fill="#262626"/>
      <path id="Path_29316" data-name="Path 29316" d="M688.83,512.726c14.041,0,25.9-18.879,25.9-41.225s-11.862-41.225-25.9-41.225-25.9,18.878-25.9,41.225,11.862,41.225,25.9,41.225" transform="translate(-189.052 -122.705)" fill="#262626"/>
      <path id="Path_29317" data-name="Path 29317" d="M622.847,399.713l-.518,5.669-2.673,29.854a20.675,20.675,0,0,1-1.211,5.36,20.945,20.945,0,0,1-19.65,13.7H384.806c-.666,0-1.323-.028-1.981-.091L365.68,452.57a25.664,25.664,0,0,1-23.094-27.132c.077-1.365.112-2.75.112-4.143,0-28.846-16.522-52.226-36.908-52.226s-36.908,23.38-36.908,52.226a72.866,72.866,0,0,0,1.28,13.667,6.587,6.587,0,0,1-7.061,7.845l-68.988-6.571-.385-.035L147.9,431.834a8.393,8.393,0,0,1-7.551-9.412,95.675,95.675,0,0,0,.776-12.275c0-28.84-12.562-52.22-28.055-52.22s-28.063,23.38-28.063,52.22c0,2.358.084,4.681.245,6.956a4.768,4.768,0,0,1-7.306,4.423,31.017,31.017,0,0,1-13.878-27.811l2.485-40.582-2.659-13.464a15.471,15.471,0,0,1,4.4-14.094l15.977-15.543,6.291-7.516a129.614,129.614,0,0,1,70.416-43.193l44.214-10.154a164.491,164.491,0,0,1,37.391-4.178l95.385.343a244.557,244.557,0,0,1,142.356,46.313L514.019,316l9.357,3.149,60.135,20.26a58,58,0,0,1,20.12,11.687v.007a58.182,58.182,0,0,1,15.186,21.54,57.431,57.431,0,0,1,3.912,15.431,58.217,58.217,0,0,1,.119,11.638" transform="translate(-18.138 -69.865)" fill="#a8a8a8"/>
      <path id="Path_29318" data-name="Path 29318" d="M753.492,467.976l-.448,5.011-2.225,24.843a20.674,20.674,0,0,1-1.21,5.36,10.5,10.5,0,0,1-1.421.105H533.463a9.932,9.932,0,0,1-9.93-9.93V474.421A9.934,9.934,0,0,1,534.94,464.6l51.821,7.768a9.94,9.94,0,0,1,5.8,3.044l7.656,8.209a9.93,9.93,0,0,0,7.257,3.156H708.564a9.927,9.927,0,0,0,7.25-3.156l8.236-8.811a9.931,9.931,0,0,1,4.318-2.708l16.873-5.228a9.822,9.822,0,0,1,8.25,1.106" transform="translate(-149.3 -132.46)" fill="#262626"/>
      <path id="Path_29319" data-name="Path 29319" d="M753.043,475.068l-2.225,24.844a20.678,20.678,0,0,1-1.211,5.36,10.626,10.626,0,0,1-1.42.105H533.463a9.932,9.932,0,0,1-9.93-9.93V480.288a9.924,9.924,0,0,1,11.3-8.391l51.821,7.768a9.9,9.9,0,0,1,5.8,3.044l7.656,8.208a9.92,9.92,0,0,0,7.257,3.149H708.458a9.916,9.916,0,0,0,7.25-3.149l8.237-8.81a9.867,9.867,0,0,1,4.318-2.708l16.872-5.227a9.8,9.8,0,0,1,7.908.9" transform="translate(-149.3 -134.542)" fill="#7d7d7d"/>
      <path id="Path_29320" data-name="Path 29320" d="M758.4,438.321l-5.556,9.118a26.245,26.245,0,0,1-17.783,12.17,25.126,25.126,0,0,1-4.423.413c-.077.007-.154.007-.231.007H657.279a26.256,26.256,0,0,1-22.429-12.59l-5.563-9.118a5.12,5.12,0,0,1,4.367-7.789H666.1a5.476,5.476,0,0,1,2.806.776c.028.021.063.035.091.056a5.514,5.514,0,0,1,1.911,2.057,4,4,0,0,0,3.388,2.12h48.616a4,4,0,0,0,1.812-.434c.084-.049.168-.091.245-.139a4,4,0,0,0,1.462-1.547,5.443,5.443,0,0,1,3.632-2.764,5.523,5.523,0,0,1,1.176-.126h22.793a5.118,5.118,0,0,1,4.367,7.789" transform="translate(-179.242 -122.778)" fill="#232323"/>
      <path id="Path_29321" data-name="Path 29321" d="M681.889,460.028H657.28a26.262,26.262,0,0,1-22.43-12.586l-5.569-9.123a5.119,5.119,0,0,1,4.37-7.786H666.1a5.451,5.451,0,0,1,2.807.775.479.479,0,0,1,.093.059,5.489,5.489,0,0,1,1.913,2.052,4,4,0,0,0,3.383,2.125h3.31a7.756,7.756,0,0,0,2.509,1.205c4.012,1.238,1.3,17.385,1.774,23.278" transform="translate(-179.241 -122.778)" fill="#232323"/>
      <path id="Path_29322" data-name="Path 29322" d="M731.174,470.822H720.72c3.039-3.237,8.454-3.264,10.454,0" transform="translate(-205.533 -133.572)" fill="#232323"/>
      <path id="Path_29323" data-name="Path 29323" d="M791.522,438.32l-5.555,9.123a26.288,26.288,0,0,1-17.783,12.168,25.219,25.219,0,0,1-4.422.41c-.079.006-.159.006-.232.006H744.662a169.5,169.5,0,0,0,.761-21.629,25.573,25.573,0,0,1-.053-2.854h10.665a4,4,0,0,0,1.808-.437c.086-.046.172-.093.245-.139a3.977,3.977,0,0,0,1.463-1.55,5.45,5.45,0,0,1,3.635-2.761,5.358,5.358,0,0,1,1.172-.126h22.794a5.116,5.116,0,0,1,4.37,7.786" transform="translate(-212.36 -122.778)" fill="#232323"/>
      <path id="Path_29324" data-name="Path 29324" d="M588.513,426.858v1.54a5.822,5.822,0,0,1-6.291,5.8l-9.917-.812-17.726-1.448L528.448,429.8A5.816,5.816,0,0,1,523.1,424V408.8a5.812,5.812,0,0,1,7.641-5.521c.007,0,.021.006.029.006l20.518,6.894,6.249,2.1,18.664,6.27,8.342,2.8a5.819,5.819,0,0,1,3.968,5.515" transform="translate(-149.177 -114.919)" fill="#191919"/>
      <path id="Path_29325" data-name="Path 29325" d="M839,439l-11.456,1.064c-2.919.28-5.424-2.26-5.55-5.536-.007-.084-.007-.174-.007-.259v-1.54a5.79,5.79,0,0,1,3.506-5.514l6.614-2.513,2.981-1.134A57.37,57.37,0,0,1,839,439" transform="translate(-234.413 -120.793)" fill="#191919"/>
      <path id="Path_29326" data-name="Path 29326" d="M308.964,368.737c-3.3,2.123-87.188,3.846-131.682,3.942a8.988,8.988,0,0,0-8.886,9.815c1.119,13.645-4.062,28.156-4.062,28.156A71.893,71.893,0,0,0,156.2,386.3a64.794,64.794,0,0,0-16.685-19.785c-5.959-4.8-10.672-11.059-10.2-12.6.756-2.457,174.219,3.47,174.219,3.47s9.783,8.545,5.431,11.344" transform="translate(-36.868 -100.76)" fill="#7d7d7d"/>
      <path id="Path_29327" data-name="Path 29327" d="M368.122,261.155h72.855a211.3,211.3,0,0,1,138.7,51.9l6.5,5.657a2.213,2.213,0,0,1-1.452,3.882H414.444a16.766,16.766,0,0,1-13.517-6.847L365.16,267a3.673,3.673,0,0,1,2.962-5.846" transform="translate(-103.931 -74.475)" fill="#232323"/>
      <path id="Path_29328" data-name="Path 29328" d="M582.684,320.488H415.841a13.332,13.332,0,0,1-10.7-5.416l-16.018-21.834L369.38,266.329a.134.134,0,0,1-.021-.182.144.144,0,0,1,.161-.1h72.85a207.594,207.594,0,0,1,53.41,6.985q9.6,2.551,18.922,6.012h.007a208.044,208.044,0,0,1,64.068,38.041Z" transform="translate(-105.325 -75.871)" fill="#6d6d6d"/>
      <path id="Path_29329" data-name="Path 29329" d="M317.929,311.955,283.6,263.532a6.464,6.464,0,0,0-4.992-2.719c-12.789-.567-62.281-1.478-115.959,14.5a6.5,6.5,0,0,0-1.3.545c-4.035,2.233-26.263,15.056-37.52,32.565a6.464,6.464,0,0,0,5.325,9.936l183.366,3.8a6.465,6.465,0,0,0,5.408-10.2" transform="translate(-35.02 -74.308)" fill="#232323"/>
      <path id="Path_29330" data-name="Path 29330" d="M158.513,293.06a224.4,224.4,0,0,0-7.537,30.764l-16.9-.35a3.72,3.72,0,0,1-2.918-5.914c7.705-10.707,19.615-19.49,27.356-24.5" transform="translate(-37.199 -83.574)" fill="#262626"/>
      <path id="Path_29331" data-name="Path 29331" d="M155.578,300.187q-1.291,4.42-2.421,9c-1.176,4.738-2.212,9.594-3.1,14.535l-11.127-.231-3.975-.084a1.562,1.562,0,0,1-1.4-.881,1.619,1.619,0,0,1,.147-1.708c6.11-8.5,15.081-15.8,21.876-20.63" transform="translate(-38.036 -85.606)" fill="#6d6d6d"/>
      <path id="Path_29332" data-name="Path 29332" d="M348.308,319.571,258.067,317.7a181.836,181.836,0,0,1,7.152-49.057,378.029,378.029,0,0,1,39.952-2.2c4.78,0,8.559.105,11.113.21a3.694,3.694,0,0,1,2.876,1.568l32.254,45.488a3.716,3.716,0,0,1-3.107,5.864" transform="translate(-73.595 -75.983)" fill="#262626"/>
      <path id="Path_29333" data-name="Path 29333" d="M350.67,317.434a1.564,1.564,0,0,1-1.427.875l-18.293-.378-49.1-1.015-20.8-.434a179.151,179.151,0,0,1,6.641-45.06,375.862,375.862,0,0,1,38.329-2.044c4.94,0,8.727.112,11.029.21a.166.166,0,0,1,.056.006,1.582,1.582,0,0,1,1.189.672l25.327,35.718,6.928,9.77a1.582,1.582,0,0,1,.119,1.68" transform="translate(-74.446 -76.82)" fill="#6d6d6d"/>
      <path id="Path_29334" data-name="Path 29334" d="M237.015,269.525a181.836,181.836,0,0,0-7.152,49.057l-70.7-1.47a224.293,224.293,0,0,1,7.537-30.764c3.24-2.1,5.745-3.541,6.907-4.192a3.821,3.821,0,0,1,.763-.315,354.351,354.351,0,0,1,62.64-12.316" transform="translate(-45.391 -76.862)" fill="#262626"/>
      <path id="Path_29335" data-name="Path 29335" d="M235.135,272.932a184.2,184.2,0,0,0-6.34,44.48l-54.914-1.147-11.218-.231c1.238-6.767,2.8-13.521,4.591-19.952.707-2.519,1.448-5,2.218-7.4,2.834-1.813,5.053-3.094,6.165-3.716a1.837,1.837,0,0,1,.315-.133q3.013-.892,6.075-1.736c10.385-2.855,21.155-5.248,32.24-7.159q10.267-1.784,20.869-3" transform="translate(-46.388 -77.834)" fill="#6d6d6d"/>
      <path id="Path_29336" data-name="Path 29336" d="M746.554,437.541l-3.247,24.479a25.069,25.069,0,0,0,4.423-.412l3.646-24.067Zm-7.355,2.89a3.99,3.99,0,0,1-1.463,1.547c-.077.049-.161.091-.245.14a3.808,3.808,0,0,1-.609.244l-1.91,19.665h4.367l2.792-24.15a5.429,5.429,0,0,0-2.932,2.554m-11.358,2.121-1.2,19.475H731l1.56-19.475Zm-9.028,0-.5,19.475h4.367l.868-19.475Zm-9.014,0,.175,19.475h4.367l.182-19.475Zm-4.3,0h-4.731l.875,19.475h4.367Zm-9.02,0h-4.731l1.561,19.475h4.367Zm-9.028,0h-.392a4,4,0,0,1-3.387-2.121,5.48,5.48,0,0,0-1.386-1.679l2.695,23.275h4.36Zm-9.685-5.011h-4.821l3.7,24.486h4.367Z" transform="translate(-191.909 -124.777)" fill="#6d6d6d"/>
      <path id="Path_29337" data-name="Path 29337" d="M588.376,427.041a12.879,12.879,0,0,1-4.822,10.056l-17.726-1.448a12.919,12.919,0,0,1,2.96-19.665l18.664,6.27a12.784,12.784,0,0,1,.924,4.786" transform="translate(-160.425 -118.629)" fill="#414244"/>
      <path id="Path_29338" data-name="Path 29338" d="M553.355,410.538a11.519,11.519,0,1,1-20.553-7.145c.007,0,.021.007.028.007l20.518,6.893c.007.084.007.162.007.245" transform="translate(-151.234 -115.038)" fill="#414244"/>
      <path id="Path_29339" data-name="Path 29339" d="M833.531,429.419A7.107,7.107,0,0,1,822,434.982c-.007-.084-.007-.175-.007-.259v-1.54a5.792,5.792,0,0,1,3.506-5.515l6.614-2.512a7.073,7.073,0,0,1,1.42,4.262" transform="translate(-234.413 -121.245)" fill="#414244"/>
      <path id="Path_29340" data-name="Path 29340" d="M340.691,409.564S299.8,406.8,297.7,469.068c0,0,1.167,12.327-5.832,13.035s-108.238-7.689-108.472-8.622-.466-8.928,7-12.162,86.973,6.2,91.424,2.415,4.36-65.6,58.874-54.17" transform="translate(-52.277 -116.397)" fill="#7d7d7d"/>
    </g>
  </g>
  <g id="Group_6457" data-name="Group 6457" transform="translate(323.917 249.285)">
    <g id="Group_6456" data-name="Group 6456" clip-path="url(#clip-path-6)">
      <rect id="Rectangle_3381" data-name="Rectangle 3381" width="266.872" height="88.467" transform="matrix(0.99, -0.139, 0.139, 0.99, -7.234, 1.016)" fill="#bcbcbc"/>
    </g>
  </g>
  <g id="Group_6459" data-name="Group 6459" transform="translate(313.169 262.259)">
    <g id="Group_6458" data-name="Group 6458" clip-path="url(#clip-path-7)">
      <rect id="Rectangle_3382" data-name="Rectangle 3382" width="58.594" height="121.038" transform="translate(0 0)" fill="#7d7d7d"/>
    </g>
  </g>
  <g id="Group_6461" data-name="Group 6461" transform="translate(0 0)">
    <g id="Group_6460" data-name="Group 6460" clip-path="url(#clip-path)">
      <path id="Path_29343" data-name="Path 29343" d="M239.611,272.932a177.225,177.225,0,0,0-4.982,25.494c-4.927,5.682-9.889,11.9-14.823,18.706l-41.45-.868c10.714-13.394,26.089-27.93,40.386-40.33q10.267-1.784,20.869-3" transform="translate(-50.863 -77.834)" fill="#fff"/>
      <path id="Path_29344" data-name="Path 29344" d="M287.012,270.181a232.91,232.91,0,0,0-22.905,21.827,168.452,168.452,0,0,1,4.458-20.357c6.655-.686,12.855-1.162,18.447-1.47" transform="translate(-75.317 -77.049)" fill="#fff"/>
      <path id="Path_29345" data-name="Path 29345" d="M378.437,330.359a1.582,1.582,0,0,1,.119,1.68,1.563,1.563,0,0,1-1.427.875l-18.293-.378c4.024-4.129,8.272-8.111,12.674-11.946Z" transform="translate(-102.331 -91.425)" fill="#fff"/>
      <path id="Path_29346" data-name="Path 29346" d="M503.675,273.034c-19.329,14-37.769,31.163-53.5,47.454H423.735a13.331,13.331,0,0,1-10.7-5.416l-16.019-21.834A360.514,360.514,0,0,1,439.5,266.05h10.77a207.591,207.591,0,0,1,53.409,6.984" transform="translate(-113.22 -75.871)" fill="#919191"/>
      <path id="Path_29347" data-name="Path 29347" d="M575.207,292.942c-10.679,10.357-21.057,21.645-30.6,32.73H510.894a292.148,292.148,0,0,1,44.179-41.443h.007a207.227,207.227,0,0,1,20.127,8.713" transform="translate(-145.695 -81.056)" fill="#fff"/>
      <path id="Path_29348" data-name="Path 29348" d="M155.578,300.187q-1.291,4.42-2.421,9c-5.067,4.794-9.889,9.609-14.227,14.3l-3.975-.084a1.562,1.562,0,0,1-1.4-.881,1.619,1.619,0,0,1,.147-1.708c6.11-8.5,15.081-15.8,21.876-20.63" transform="translate(-38.036 -85.606)" fill="#fff"/>
      <path id="Path_29349" data-name="Path 29349" d="M183.858,287.147c-4.948,4.206-9.93,8.573-14.773,12.988.707-2.519,1.449-5,2.219-7.4,2.834-1.812,5.052-3.093,6.165-3.716a1.832,1.832,0,0,1,.315-.133q3.013-.892,6.075-1.736" transform="translate(-48.219 -81.888)" fill="#fff"/>
    </g>
  </g>
  <g id="Group_6463" data-name="Group 6463" transform="translate(221.752 231.537)">
    <g id="Group_6462" data-name="Group 6462" clip-path="url(#clip-path-9)">
      <rect id="Rectangle_3384" data-name="Rectangle 3384" width="58.05" height="27.678" transform="translate(-1.016 0)" fill="#424242"/>
    </g>
  </g>
  <g id="Group_6465" data-name="Group 6465" transform="translate(217.441 231.537)">
    <g id="Group_6464" data-name="Group 6464" clip-path="url(#clip-path-10)">
      <rect id="Rectangle_3385" data-name="Rectangle 3385" width="58.007" height="27.678" transform="translate(-1.016)" fill="#fff"/>
    </g>
  </g>
  <g id="Group_6467" data-name="Group 6467" transform="translate(217.783 244.645)">
    <g id="Group_6466" data-name="Group 6466" clip-path="url(#clip-path-11)">
      <rect id="Rectangle_3386" data-name="Rectangle 3386" width="6.746" height="8.524" fill="#424242"/>
    </g>
  </g>
  <g id="Group_6469" data-name="Group 6469" transform="translate(0 0)">
    <g id="Group_6468" data-name="Group 6468" clip-path="url(#clip-path)">
      <path id="Path_29353" data-name="Path 29353" d="M381.808,348.876c0,4.185-3.989,7.46-8.594,7.054l-7.817-.686-1.568-.14-2.421-.217-48.273-4.248-.182-.658-2.24-7.831-.007-.035,47.168-.245,2.247-.014,2.057-.007,11.757-.056h.042c4.318,0,7.831,3.17,7.831,7.082" transform="translate(-88.606 -97.472)" fill="#232323"/>
      <path id="Path_29354" data-name="Path 29354" d="M251.165,308.6q-1.133,9.332-1.357,18.986l-13.464-.279c4.934-6.8,9.9-13.024,14.822-18.706" transform="translate(-67.4 -88.005)" fill="#232528"/>
      <path id="Path_29355" data-name="Path 29355" d="M317.108,269.6c-13.248,12.877-25.676,31.226-35.257,47.321l-20.8-.434a187.486,187.486,0,0,1,2.183-24.7,232.989,232.989,0,0,1,22.905-21.827c8.041-.448,14.822-.574,19.882-.574,4.94,0,8.727.112,11.029.21a.149.149,0,0,1,.056.007" transform="translate(-74.446 -76.82)" fill="#919395"/>
      <path id="Path_29356" data-name="Path 29356" d="M527.991,408.157s-2.748,14.94,2.45,19.275,37.264,4.585,37.264,4.585-34.465-3.107-39.714-23.86" transform="translate(-150.364 -116.397)" fill="#fff"/>
      <path id="Path_29357" data-name="Path 29357" d="M831,429.053s-5.249.991-5.774,5.19,3.907,5.888,3.907,5.888-3.791-6.763,1.867-11.078" transform="translate(-235.324 -122.356)" fill="#fff"/>
      <path id="Path_29358" data-name="Path 29358" d="M244.542,378.109c3.667,4.927,8.23,11.057,7.733,22.856-.35,8.3-2.589,17.705-4.759,26.81-3.247,13.646-6.313,26.537-3.052,34.823l-.329.126-.385-.035c-3.24-8.489-.168-21.407,3.086-35.074,2.162-9.07,4.395-18.447,4.738-26.677.483-11.554-3.807-17.32-7.6-22.408-2.862-3.849-5.34-7.173-4.919-12.134.924-11.163,12.785-27.825,13.289-28.525l.574.406c-.127.175-12.254,17.209-13.171,28.182-.392,4.7,2.009,7.922,4.794,11.652" transform="translate(-68.16 -96.352)" fill="#262626"/>
      <path id="Path_29359" data-name="Path 29359" d="M171.863,457.557c-2.793-7.544-1.489-12.63.162-19.07,1.914-7.471,4.3-16.768,2.174-34.3-2.823-23.321-15.808-34.131-23.567-40.59-3.352-2.791-5.774-4.806-6.2-6.791-1.39-6.422,9.922-21.814,10.4-22.465l.563.415c-.116.157-11.607,15.788-10.283,21.9.378,1.748,2.722,3.7,5.966,6.4,7.839,6.526,20.958,17.448,23.815,41.044,2.138,17.665-.263,27.034-2.192,34.561-1.683,6.569-2.9,11.315-.183,18.653Z" transform="translate(-41.154 -95.345)" fill="#262626"/>
      <path id="Path_29360" data-name="Path 29360" d="M273.043,367.649c0,2.773-4.466,5.021-9.974,5.021s-9.973-2.248-9.973-5.021,4.465-5.021,9.973-5.021,9.974,2.248,9.974,5.021" transform="translate(-72.177 -103.413)" fill="#232323"/>
      <path id="Path_29361" data-name="Path 29361" d="M272.223,370.573h-20.8a1.582,1.582,0,0,1-1.582-1.582V367.9a1.582,1.582,0,0,1,1.582-1.582h20.8A1.582,1.582,0,0,1,273.8,367.9v1.094a1.582,1.582,0,0,1-1.582,1.582" transform="translate(-71.247 -104.465)" fill="#6d6d6d"/>
      <path id="Path_29362" data-name="Path 29362" d="M171.075,361.97c0,2.241-3.609,4.058-8.06,4.058s-8.06-1.817-8.06-4.058,3.608-4.058,8.06-4.058,8.06,1.817,8.06,4.058" transform="translate(-44.189 -102.068)" fill="#232323"/>
      <path id="Path_29363" data-name="Path 29363" d="M170.412,364.333H153.6a1.279,1.279,0,0,1-1.278-1.279v-.884a1.279,1.279,0,0,1,1.278-1.278h16.814a1.279,1.279,0,0,1,1.279,1.278v.884a1.279,1.279,0,0,1-1.279,1.279" transform="translate(-43.438 -102.918)" fill="#6d6d6d"/>
      <path id="Path_29364" data-name="Path 29364" d="M180.159,197.338s3.806,5.793,2.979,8.11-4.782,1.738-4.782,1.738Z" transform="translate(-50.863 -56.276)" fill="#727272"/>
      <path id="Path_29365" data-name="Path 29365" d="M171.793,184.148s-.41,19.147-4.25,24.6c-.748,1.059-2.079,1.377-3.747,1.145a22.129,22.129,0,0,1-7.62-3.072l-.007-.006c-.165-.093-.331-.192-.5-.291-4.548-2.761-9.07-6.634-11.076-9.494a5.828,5.828,0,0,1-1.046-2.145c-.914-5.044-3.218-19.47-.338-26,2.628-5.965,23.669-10.295,27.866,9.1a33.142,33.142,0,0,1,.715,6.157" transform="translate(-40.441 -46.724)" fill="#424242"/>
      <path id="Path_29366" data-name="Path 29366" d="M157.459,227.3l-15.068-8.772,2.37-13.155,2.211-12.287,8.163,8.95,1.205,13.128.721,7.845Z" transform="translate(-40.607 -55.063)" fill="#424242"/>
      <path id="Path_29367" data-name="Path 29367" d="M159.8,223.845l.721,7.845-6-.814s2.794-7.733,4.774-7.329a.892.892,0,0,1,.5.292Z" transform="translate(-44.066 -63.746)" fill="#727272"/>
      <path id="Path_29368" data-name="Path 29368" d="M160.254,181.005l4.524,3.42V197l-1.683.332s-1.03-6.952-3.866-6.842-2.257,8.827-5.9,12.717c-3.117,3.33-5.986,3.437-10.069.16s-5.207-18.009-5.207-18.009Z" transform="translate(-39.37 -51.618)" fill="#6d6d6d"/>
      <path id="Path_29369" data-name="Path 29369" d="M180.563,189.793s-.41,19.147-4.25,24.6c-.748,1.059-2.079,1.377-3.747,1.145,9.434-6.759,1.225-31.9,1.225-31.9h6.058a33.14,33.14,0,0,1,.715,6.157" transform="translate(-49.212 -52.369)" fill="#727272"/>
      <path id="Path_29370" data-name="Path 29370" d="M163.62,172.448s23.12-6.265,28.639,1.492-31.771,9.378-31.771,9.378Z" transform="translate(-45.767 -48.497)" fill="#ff9540"/>
      <path id="Path_29371" data-name="Path 29371" d="M170.762,178.937a57.645,57.645,0,0,1-8.441,2.039,58.3,58.3,0,0,1-23.165-.417c-.45-.106-.9-.219-1.351-.345,0,0-5.885-12.175,8.05-17.219.02-.007.04-.014.054-.02l.1-.04a.054.054,0,0,1,.02-.006,28.632,28.632,0,0,1,2.834-.834c.186-.046.365-.086.55-.126,17.273-3.734,21.351,16.968,21.351,16.968" transform="translate(-38.947 -46.061)" fill="#ff9540"/>
      <path id="Path_29372" data-name="Path 29372" d="M175.884,178.937a57.646,57.646,0,0,1-8.441,2.039c-.006-.239-.013-.477-.019-.722-.232-13.267-7.978-17.154-12.89-18.286,17.273-3.734,21.351,16.968,21.351,16.968" transform="translate(-44.069 -46.061)" fill="#d1683f"/>
      <path id="Path_29373" data-name="Path 29373" d="M139.156,181.148c-.45-.106-.9-.219-1.35-.345,0,0-5.886-12.175,8.05-17.219-1.086.476-6.972,3.7-6.7,17.564" transform="translate(-38.947 -46.65)" fill="#727272"/>
      <path id="Path_29374" data-name="Path 29374" d="M183.007,197.748c0,1.142-.419,2.069-.936,2.069s-.936-.926-.936-2.069.419-2.069.936-2.069.936.926.936,2.069" transform="translate(-51.656 -55.803)" fill="#262626"/>
      <path id="Path_29375" data-name="Path 29375" d="M178.442,192.866l-.94-.2c.528-2.477,3.84-2.65,3.981-2.656l.042.961c-.026,0-2.71.147-3.083,1.9" transform="translate(-50.619 -54.186)" fill="#6d6d6d"/>
      <path id="Path_29376" data-name="Path 29376" d="M171.969,201.1c0,2.331-.809,4.22-1.807,4.22s-1.808-1.889-1.808-4.22.809-4.22,1.808-4.22,1.807,1.889,1.807,4.22" transform="translate(-48.011 -56.145)" fill="#727272"/>
      <path id="Path_29377" data-name="Path 29377" d="M445.707,382.04a5.133,5.133,0,0,0-2.367,6.681c1.285,3.042,3,9.348,3.255,21.626.424,20.027,5.576,19.884,8.627,28.811s-3.435,16.7,2.374,21.836,9.615-39.557,8.456-50.647c-1-9.549-11.936-32.23-20.345-28.306" transform="translate(-126.308 -108.82)" fill="#232528"/>
      <path id="Path_29378" data-name="Path 29378" d="M311.1,322.762s28.222-4.215,54.869-1.3,49.654,17.5,52.467,17.765,15.558,4.052,21.517,7.016-.166,9.647,3.806,16.485,5.006,35.847,2.172,41.452-9.892-8.029-16.074-8.133-9.729,23.535-12.91,15.755-2-28.666-9.373-45.438c-4.78-10.877-53.687-38.839-95.4-41.156s-1.078-2.45-1.078-2.45" transform="translate(-83.659 -91.381)" fill="#717272"/>
      <path id="Path_29379" data-name="Path 29379" d="M480.356,434.263s-2.1,14.3-1.987,20.989-.11,41.441,3.2,41.772-.662-32.547,4.745-34.754-2.317-39.352-5.959-28.007" transform="translate(-136.419 -123.229)" fill="#717272"/>
      <path id="Path_29380" data-name="Path 29380" d="M497.288,348.229s15.612-3.968,23.611,2.124-23.611-2.124-23.611-2.124" transform="translate(-141.815 -98.945)" fill="#fff"/>
      <path id="Path_29381" data-name="Path 29381" d="M480.734,341.389s19.5-12.666,21.7-6.162-21.7,6.162-21.7,6.162" transform="translate(-137.094 -95.069)" fill="#fff"/>
      <path id="Path_29382" data-name="Path 29382" d="M418.565,367.429s-22.836,4.37-22.424-2.486,22.424,2.486,22.424,2.486" transform="translate(-112.969 -103.357)" fill="#fff"/>
      <path id="Path_29383" data-name="Path 29383" d="M417.486,377.563s-10.107,9.065-11.279,4.442,11.279-4.442,11.279-4.442" transform="translate(-115.819 -107.672)" fill="#fff"/>
      <path id="Path_29384" data-name="Path 29384" d="M327.406,325.01s36.477-1.264,62.1,7.754.134,2.2,1.127,5.28,25.476,12.123,30.5,19.186-30.131-14.8-42.861-20.239c-14.1-6.022-35.419-11.871-50.868-11.981" transform="translate(-93.369 -92.668)" fill="#fff"/>
    </g>
  </g>
  <g id="Group_6471" data-name="Group 6471" transform="translate(329.483 267.212)">
    <g id="Group_6470" data-name="Group 6470" clip-path="url(#clip-path-13)">
      <rect id="Rectangle_3388" data-name="Rectangle 3388" width="24.965" height="47.054" transform="translate(-1.249 0.034) rotate(-1.542)" fill="url(#linear-gradient)"/>
    </g>
  </g>
  <g id="Group_6473" data-name="Group 6473" transform="translate(351.711 291.681)">
    <g id="Group_6472" data-name="Group 6472" clip-path="url(#clip-path-14)">
      <rect id="Rectangle_3389" data-name="Rectangle 3389" width="24.098" height="94.486" transform="translate(-5.631 0.271) rotate(-3.085)" fill="url(#linear-gradient-2)"/>
    </g>
  </g>
  <g id="Group_6475" data-name="Group 6475" transform="translate(0 0)">
    <g id="Group_6474" data-name="Group 6474" clip-path="url(#clip-path)">
      <path id="Path_29387" data-name="Path 29387" d="M476.174,339.6a1.448,1.448,0,1,1-1.448-1.448,1.448,1.448,0,0,1,1.448,1.448" transform="translate(-134.968 -96.434)" fill="#fff"/>
      <path id="Path_29388" data-name="Path 29388" d="M490.925,327.219a3.42,3.42,0,1,1-3.42-3.42,3.42,3.42,0,0,1,3.42,3.42" transform="translate(-138.05 -92.34)" fill="#fff"/>
      <path id="Path_29389" data-name="Path 29389" d="M512.041,360.866a2.476,2.476,0,1,1-2.476-2.476,2.476,2.476,0,0,1,2.476,2.476" transform="translate(-144.61 -102.205)" fill="#fff"/>
      <path id="Path_29390" data-name="Path 29390" d="M432.5,377.583a2.227,2.227,0,1,1-2.227-2.227,2.227,2.227,0,0,1,2.227,2.227" transform="translate(-122.07 -107.043)" fill="#fff"/>
      <path id="Path_29391" data-name="Path 29391" d="M438.007,393.6a3.42,3.42,0,1,1-3.42-3.42,3.42,3.42,0,0,1,3.42,3.42" transform="translate(-122.959 -111.269)" fill="#fff"/>
      <path id="Path_29392" data-name="Path 29392" d="M541.442,352.8a1.9,1.9,0,1,1-1.9-1.9,1.9,1.9,0,0,1,1.9,1.9" transform="translate(-153.325 -100.07)" fill="#fff"/>
      <path id="Path_29393" data-name="Path 29393" d="M218.248,316.153l-.556,4.939-.47,4.211-.212,1.88c-1.039-.119-2.185-.232-3.416-.351-1.079-.1-2.237-.205-3.449-.3-.1-.013-.2-.019-.3-.026-2.841-.225-6.012-.43-9.421-.6-17.054-.834-40.054-.662-57.611,3.3-1.4.311-2.774.655-4.1,1.019a63.248,63.248,0,0,0-7.733,2.642,34.293,34.293,0,0,0-7.706,4.376,22.766,22.766,0,0,0-3.668,3.648,45.962,45.962,0,0,0-6.746,12.559c-.941,2.483-1.821,5.13-2.662,7.911-1.317,4.33-2.555,8.977-3.839,13.824-.066.264-.139.522-.205.788C100.278,398.088,93,424.735,70.538,441.081a67.894,67.894,0,0,1-9.759,5.926q-.714.357-1.43.695-2.3-2.035-4.508-4.131-2.136-2.016-4.177-4.1c1.734-.742,3.455-1.536,5.15-2.384a57.482,57.482,0,0,0,20.795-17.61c10.156-13.731,14.77-31.136,19.014-47.131,1.231-4.648,2.45-9.229,3.774-13.624.317-1.059.642-2.112.986-3.145q.695-2.184,1.456-4.283c2.536-7,5.6-13.254,9.825-18.193.272-.325.55-.635.828-.947a33.051,33.051,0,0,1,3.932-3.648q.308-.248.635-.477a40.623,40.623,0,0,1,6.032-3.694,66.612,66.612,0,0,1,11.692-4.476c3.012-.874,6.177-1.615,9.434-2.251q3.664-.7,7.461-1.231c22.006-3.079,46.409-1.887,58.683-.94,1.291.1,2.45.2,3.456.284,2.47.218,4.032.39,4.429.437" transform="translate(-14.448 -89.657)" fill="#7d7d7d"/>
      <path id="Path_29394" data-name="Path 29394" d="M219.358,323.157l-.47,4.21-.212,1.881c-1.039-.119-2.185-.232-3.416-.351-1.079-.1-2.237-.205-3.449-.3-.1-.013-.2-.02-.3-.026-2.841-.225-6.012-.43-9.421-.6-17.054-.834-40.054-.662-57.611,3.3-1.4.311-2.774.656-4.1,1.019a63.118,63.118,0,0,0-7.733,2.642,34.268,34.268,0,0,0-7.707,4.376,22.765,22.765,0,0,0-3.668,3.648,45.967,45.967,0,0,0-6.746,12.559c-.941,2.483-1.821,5.131-2.662,7.912-1.317,4.33-2.555,8.977-3.839,13.823-.066.265-.139.523-.205.788C101.944,400.153,94.662,426.8,72.2,443.146a67.884,67.884,0,0,1-9.759,5.925q-.714.358-1.43.7-2.3-2.036-4.508-4.131c.92-.424,1.827-.861,2.734-1.311a57.5,57.5,0,0,0,20.795-17.61c10.155-13.731,14.77-31.136,19.014-47.132,1.232-4.647,2.45-9.228,3.774-13.625.318-1.059.643-2.112.986-3.144q.7-2.185,1.457-4.284c2.535-7,5.6-13.254,9.825-18.193.272-.325.55-.635.828-.946a32.942,32.942,0,0,1,3.933-3.648q.308-.249.635-.477a40.5,40.5,0,0,1,6.031-3.694,66.547,66.547,0,0,1,11.692-4.475c3.012-.874,6.177-1.616,9.434-2.251q3.665-.706,7.461-1.232c22.007-3.079,46.41-1.887,58.684-.94,1.291.1,2.45.2,3.456.285.8.073,1.509.139,2.112.2" transform="translate(-16.115 -91.722)" fill="#a8a8a8"/>
      <path id="Path_29395" data-name="Path 29395" d="M278.841,314.165l-.273,13.686,28.239-3.019.13-6.525Z" transform="translate(-79.441 -89.593)" fill="#424242"/>
      <path id="Path_29396" data-name="Path 29396" d="M321.669,318.211l-.168,8.406a1.284,1.284,0,0,1-1.31,1.258l-.887-.017a1.285,1.285,0,0,1-1.259-1.31l.168-8.4a1.284,1.284,0,0,1,1.31-1.259l.888.018a1.284,1.284,0,0,1,1.258,1.31" transform="translate(-90.699 -90.368)" fill="#424242"/>
      <path id="Path_29397" data-name="Path 29397" d="M277.5,309.48l-.392,19.625a1.284,1.284,0,0,1-1.31,1.259l-.887-.018a1.285,1.285,0,0,1-1.259-1.31l.392-19.625a1.284,1.284,0,0,1,1.31-1.259l.888.018a1.285,1.285,0,0,1,1.259,1.31" transform="translate(-78.039 -87.878)" fill="#424242"/>
      <path id="Path_29398" data-name="Path 29398" d="M280.924,322.333s-.276,5.959.5,6.124S306.3,326.2,306.3,326.2Z" transform="translate(-80.099 -91.922)" fill="#a8a8a8"/>
      <path id="Path_29399" data-name="Path 29399" d="M151.246,364.323c-.887,4.019-1.5,6.375-1.5,6.375a74.847,74.847,0,0,1-12.176,2.5c-16.174,1.88-26.535-3.158-35.525-6.641-3.721-1.436-7.7-3.1-6.674-11.195a85.639,85.639,0,0,0,42.7,10.427,74.094,74.094,0,0,0,13.175-1.47" transform="translate(-27.15 -101.342)" fill="#727272"/>
      <path id="Path_29400" data-name="Path 29400" d="M179.122,557.416l2.255,4.285s11.845-1.913,17.032,2.33,2.63,8.612,2.63,8.612H171.6L169.844,560.6Z" transform="translate(-48.436 -158.962)" fill="#262626"/>
      <path id="Path_29401" data-name="Path 29401" d="M73.352,554.869l-.981,5.982s10.926-1.79,16.113,2.454,2.63,8.612,2.63,8.612H58.125l3.393-16.551Z" transform="translate(-16.576 -158.236)" fill="#262626"/>
      <path id="Path_29402" data-name="Path 29402" d="M124.12,348.815l-3.655,13.3-19.5,70.991L74.93,495.784l-2.926-.3-12.255-1.238.391-1.384L79.492,423.9s.039-40.027,6.263-66.456l.014-.053c1.563-6.641,3.522-12.42,5.965-16.485,12.175-20.252,32.387,7.912,32.387,7.912" transform="translate(-17.039 -95.129)" fill="#d1683f"/>
      <path id="Path_29403" data-name="Path 29403" d="M125.354,370.112,105.85,441.1,79.818,503.78l-2.926-.3c6.045-15.6,22.53-58.4,25.065-68.329,3.118-12.208-2.145-73.534-2.145-73.534Z" transform="translate(-21.928 -103.125)" fill="#ff9540"/>
      <path id="Path_29404" data-name="Path 29404" d="M167.351,495.213l-6.111,1.847-3.058.92-4.621,1.4-11.043-72.263s-24.985-57.645-25.356-81.458,32.725-7.885,32.725-7.885l3.3,19.524,11.268,66.688Z" transform="translate(-33.411 -94.837)" fill="#d1683f"/>
      <path id="Path_29405" data-name="Path 29405" d="M162.85,506.93c.185-9.885.609-49.276-3.734-77.638-5-32.659-36.313-59.141-36.313-59.141l32-2.986,11.268,66.688,2.894,71.23Z" transform="translate(-35.021 -104.707)" fill="#ff9540"/>
      <path id="Path_29406" data-name="Path 29406" d="M82.575,430.1c2.926,11.387-16.242,59.315-22.28,72.265L79.647,433.4s.04-40.027,6.263-66.456l.013-.053s-6.744,49.983-3.348,63.21" transform="translate(-17.195 -104.628)" fill="#ff9540"/>
      <path id="Path_29407" data-name="Path 29407" d="M168.3,535.705l-4.621,1.4L152.635,464.84s12.619,53.414,15.664,70.865" transform="translate(-43.528 -132.562)" fill="#ff9540"/>
      <path id="Path_29408" data-name="Path 29408" d="M109.578,232.1A167.235,167.235,0,0,0,80.844,266.31a3.052,3.052,0,0,0,0,2.825s-9.158,9.889-8.607,13.628,3.03,10.7,23.252,17.7-4.053-12.531-4.053-12.531l-.472-7.168,7.973-2.518L97.285,288.82l1.765,2.1,5.974-26.818Z" transform="translate(-20.593 -66.188)" fill="#fff"/>
      <path id="Path_29409" data-name="Path 29409" d="M117.536,311.445c-3.27-.914-8.282-2.5-13.757-4.575-3.145-1.2-6.441-2.555-9.652-4.038-8.395-3.893-16.167-8.653-18.955-13.672-1.257-2.264-2.138-4.177-.477-6.164l7.9-9.407,4.038-4.806,20.1-23.933s14.32-7.382,18.272,9.613c0,0-9.487,10.612-19.524,20.874-4.064,4.151-8.223,8.249-11.877,11.559,3.039,3.8,7.514,6.388,12.288,8.308,10.89,4.39,23.35,5.33,23.919,9.308.781,5.415,4.893,11.738-12.274,6.932" transform="translate(-21.041 -69.371)" fill="#7d7d7d"/>
      <path id="Path_29410" data-name="Path 29410" d="M109.406,304.581c-1,5.992-1.92,11.261-2.112,11.665-3.145-1.2-6.442-2.555-9.653-4.039-1.039-5.8-3.357-17.2-5.886-19.3-2.377-1.98-4.548-7.051-5.647-9.944l4.039-4.806,3.595-2.027L109,284.713c-4.065,4.151-8.223,8.249-11.877,11.559,3.039,3.8,7.514,6.388,12.288,8.308" transform="translate(-24.556 -78.746)" fill="#727272"/>
      <path id="Path_29411" data-name="Path 29411" d="M110.335,274.393c-.576.437-.907.668-.907.668l-3.112,2.688-1.119.966-2.668,2.31a17.842,17.842,0,0,1-7.64-2.1,19.951,19.951,0,0,1-8.911-10.817s1.212-1.814,3.1-4.548c4.846-7.037,14.134-20.192,18.636-24.357,6.243-5.786,19.828-8.289,23.794,4.482,3.522,11.334-16.6,27.263-21.172,30.706" transform="translate(-24.519 -66.864)" fill="#d1683f"/>
      <path id="Path_29412" data-name="Path 29412" d="M98.4,285.3a26.957,26.957,0,0,1-3.509,5.237,19.952,19.952,0,0,1-8.911-10.818s1.212-1.814,3.1-4.548A25.606,25.606,0,0,0,98.4,285.3" transform="translate(-24.519 -78.472)" fill="#727272"/>
      <path id="Path_29413" data-name="Path 29413" d="M113.984,294.9l-1.119.966.377-1.271c.244.106.49.205.741.3" transform="translate(-32.186 -84.011)" fill="#727272"/>
      <path id="Path_29414" data-name="Path 29414" d="M109.13,293.094l-.377,1.271-2.668,2.311a17.856,17.856,0,0,1-7.64-2.1,26.955,26.955,0,0,0,3.508-5.237,41.551,41.551,0,0,0,7.177,3.754" transform="translate(-28.074 -82.513)" fill="#ff9540"/>
      <path id="Path_29415" data-name="Path 29415" d="M115.654,261.725l-5.125,17.452a41.487,41.487,0,0,1-7.176-3.754c6.68-12.539,10.547-34.883,10.547-34.883Z" transform="translate(-29.474 -68.596)" fill="#ff9540"/>
      <path id="Path_29416" data-name="Path 29416" d="M151.246,327.211c-.887,4.019-1.5,6.376-1.5,6.376a72.325,72.325,0,0,1-14.512,2.734c-14.85,1.159-24.641-3.562-33.189-6.872-3.721-1.436-7.7-3.1-6.674-11.195a52.486,52.486,0,0,1,3.761-12.738c9.388-23.132,6.316-40.49,8.8-58.372.894-6.442,6.071-23.046,22.4-21.854a31.516,31.516,0,0,1,9.077,2.192c28.945,11.261,16.538,78.552,11.844,99.731" transform="translate(-27.15 -64.23)" fill="#ff9540"/>
      <path id="Path_29417" data-name="Path 29417" d="M165.257,327.235c-.887,4.019-1.5,6.376-1.5,6.376a72.325,72.325,0,0,1-14.512,2.734c3.079-4.979,2.33-9.242-1.642-12.188-4.561-3.39,9.534-17.961,12.128-24.9s-5.243,1.642-7.805-2.992,10.672-32.441,6.091-53.461c-2.483-11.347-8.58-15.8-13.678-17.491a31.516,31.516,0,0,1,9.077,2.192c28.945,11.261,16.538,78.552,11.844,99.731" transform="translate(-41.161 -64.254)" fill="#d1683f"/>
      <path id="Path_29418" data-name="Path 29418" d="M226.717,314.8c-4.959.49-14.677,1.41-24.767,2.231h-.006c-11.076.907-22.6,1.695-28.747,1.662a6.246,6.246,0,0,1-5.812-4.045l-3.476-9.209-1.364-3.628L149.8,268.035s.575-16.1,17.332-11.228c0,0,3.6,10.533,7.229,22.5,2.125,7.037,4.264,14.572,5.681,20.756,17.286,1.4,50,5.806,55.394,7.892,5.1,1.973,4.072,5.581-8.719,6.839" transform="translate(-42.72 -72.974)" fill="#ff9540"/>
      <path id="Path_29419" data-name="Path 29419" d="M231.8,323.036c-4.959.49-14.677,1.41-24.767,2.231h-.006c-15.777-1.2-19.087-12.817-24.649-15-4.33-1.7-10.765,1.781-13.386,3.4l-1.364-3.628c.7-9.209,4.754-25.263,4.754-25.263l7.064,2.767c2.125,7.037,4.264,14.572,5.681,20.756,17.286,1.4,50,5.806,55.394,7.892,5.1,1.973,4.072,5.581-8.719,6.839" transform="translate(-47.804 -81.214)" fill="#ff9540"/>
      <path id="Path_29420" data-name="Path 29420" d="M168.585,288.534c.807,4.145,1.416,7.554,1.741,9.454a20.373,20.373,0,0,1-11.679,1.337s-1.483-2.933-3.515-7.118c-3.879-7.991-9.744-20.55-11.049-25.985-1.139-4.747-.153-11.07,3.363-15.075,2.61-2.979,6.621-4.674,12.2-3.482,11.605,2.475,15.65,27.825,16.412,33.492.094.716.14,1.119.14,1.119l.217,1.072a34.752,34.752,0,0,1-7.824,5.184" transform="translate(-40.961 -70.519)" fill="#d1683f"/>
      <path id="Path_29421" data-name="Path 29421" d="M115.747,278.867c0,7.852,2.8,14.217,6.245,14.217s6.245-6.365,6.245-14.217-2.8-14.217-6.245-14.217-6.245,6.365-6.245,14.217" transform="translate(-33.008 -75.472)" fill="#fff"/>
      <path id="Path_29422" data-name="Path 29422" d="M174.913,314.445a20.367,20.367,0,0,1-11.679,1.337s-1.483-2.933-3.516-7.117a38.775,38.775,0,0,0,13.453-3.674c.808,4.145,1.417,7.554,1.741,9.454" transform="translate(-45.548 -86.976)" fill="#d1683f"/>
      <path id="Path_29423" data-name="Path 29423" d="M260.364,328.024s13.01,7.218,14.78,6.062,7.149-4.394,8.722-6.954-14.168-.243-14.987-1.319,1.456-4.659,2.905-7.614-3.633-1.3-6.033,2.017-7.515,3.653-7.515,3.653Z" transform="translate(-73.643 -90.305)" fill="#ff9540"/>
      <path id="Path_29424" data-name="Path 29424" d="M187.967,305.605a17.555,17.555,0,0,1-7.686,6.773c-.325-1.9-.934-5.31-1.741-9.454a34.764,34.764,0,0,0,7.826-5.184Z" transform="translate(-50.915 -84.909)" fill="#ff9540"/>
      <path id="Path_29425" data-name="Path 29425" d="M177.932,283.35a34.758,34.758,0,0,1-7.825,5.184c-1.841-9.474-4.7-22.821-7.614-31.023-3.1-8.726-9.348-8.044-13.526-6.363,2.608-2.979,6.621-4.674,12.195-3.483,11.606,2.476,15.651,27.826,16.412,33.493.093.716.139,1.119.139,1.119Z" transform="translate(-42.482 -70.519)" fill="#ff9540"/>
      <path id="Path_29426" data-name="Path 29426" d="M168.146,367.9c-.887,4.019-1.5,6.375-1.5,6.375a74.847,74.847,0,0,1-12.176,2.5,16.141,16.141,0,0,0,.5-7.408,74.094,74.094,0,0,0,13.175-1.47" transform="translate(-44.051 -104.916)" fill="#ff9540"/>
      <path id="Path_29427" data-name="Path 29427" d="M683.3,356.544s7.739,2.194,8.038,3.148a21.908,21.908,0,0,1,.069,4.371s-20.094,8.772-21.631,8.962-9.434-5.684-9.6-7.114,1.192-4.242,1.192-4.242Z" transform="translate(-188.262 -101.678)" fill="#ffba9f"/>
      <path id="Path_29428" data-name="Path 29428" d="M703.431,319.483c10.131-6.31,43.762-27.572,44.584-34.257,1.305-10.551,4.3-47.376,4.3-47.376s-3.022-15.113-16.788-5.864c0,0-1.285,28.253-.688,45.346-8.639,7.758-39.417,37.37-39.3,41.927.129,5.2-2.471,6.688,7.887.225" transform="translate(-198.296 -65.302)" fill="#ff9540"/>
      <path id="Path_29429" data-name="Path 29429" d="M768.811,260.569c-.53,3.754-1.059,6.243-1.059,6.243a12.039,12.039,0,0,1-6.236,3.528c-6.958,1.583-14.552-2.271-14.552-2.271a50.553,50.553,0,0,1-.384-7.507c-.033-2.576-.026-5.992.06-10.5.4-21.735,4.548-24.953,11.063-24.734.629.014,1.277.066,1.946.139,12.38,1.3,10.758,23.867,9.163,35.1" transform="translate(-212.902 -64.256)" fill="#d1683f"/>
      <path id="Path_29430" data-name="Path 29430" d="M763.218,277.025q-.616,3.308-1.576,6.932c-.04.152-.079.3-.119.444-6.958,1.582-14.552-2.271-14.552-2.271a50.583,50.583,0,0,1-.384-7.509,19.518,19.518,0,0,0,16.63,2.4" transform="translate(-212.91 -78.316)" fill="#727272"/>
      <path id="Path_29431" data-name="Path 29431" d="M690.991,350.854s-11.711,1.059-15.376,3.014-2.845,2.693-2.845,2.693a21.877,21.877,0,0,0-5.36,3.637c-2.064,2.091.628,5.5,2.338,5.614s11.892-3.005,15.34-4.918,4.954-5.131,5.9-10.04" transform="translate(-190.117 -100.055)" fill="#ff9540"/>
    </g>
  </g>
  <g id="Group_6477" data-name="Group 6477" transform="translate(498.365 312.767)">
    <g id="Group_6476" data-name="Group 6476" clip-path="url(#clip-path-16)">
      <rect id="Rectangle_3391" data-name="Rectangle 3391" width="41.397" height="35.31" transform="translate(-8.128 3.088) rotate(-20.802)" fill="url(#linear-gradient-3)"/>
    </g>
  </g>
  <g id="Group_6479" data-name="Group 6479" transform="translate(502.648 337.25)">
    <g id="Group_6478" data-name="Group 6478" clip-path="url(#clip-path-17)">
      <rect id="Rectangle_3392" data-name="Rectangle 3392" width="22.199" height="40.528" transform="translate(-9.745 2.642) rotate(-15.167)" fill="url(#linear-gradient-4)"/>
    </g>
  </g>
  <g id="Group_6481" data-name="Group 6481" transform="translate(525.641 337.25)">
    <g id="Group_6480" data-name="Group 6480" clip-path="url(#clip-path-18)">
      <rect id="Rectangle_3393" data-name="Rectangle 3393" width="10.289" height="15.985" transform="matrix(0.965, -0.262, 0.262, 0.965, -3.726, 1.01)" fill="url(#linear-gradient-5)"/>
    </g>
  </g>
  <g id="Group_6483" data-name="Group 6483" transform="translate(474.968 266.728)">
    <g id="Group_6482" data-name="Group 6482" clip-path="url(#clip-path-19)">
      <rect id="Rectangle_3394" data-name="Rectangle 3394" width="75.464" height="61.626" transform="matrix(0.965, -0.262, 0.262, 0.965, -11.626, 3.151)" fill="url(#linear-gradient-6)"/>
    </g>
  </g>
  <g id="Group_6485" data-name="Group 6485" transform="translate(0 0)">
    <g id="Group_6484" data-name="Group 6484" clip-path="url(#clip-path)">
      <path id="Path_29436" data-name="Path 29436" d="M662.737,372.224a3.351,3.351,0,0,0-3.351-3.351,3.31,3.31,0,0,0-1.1.2,4.464,4.464,0,0,0-6.84-5.231,2.917,2.917,0,1,0-1.759,3.345c0,.071-.011.139-.011.21a4.462,4.462,0,0,0,6.482,3.986,3.316,3.316,0,0,0-.119.839,3.351,3.351,0,1,0,6.7,0" transform="translate(-184.139 -103.114)" fill="#fff"/>
      <path id="Path_29437" data-name="Path 29437" d="M695.211,388.94a1.739,1.739,0,1,0,1.739,1.739,1.739,1.739,0,0,0-1.739-1.739" transform="translate(-197.762 -110.917)" fill="#fff"/>
      <path id="Path_29438" data-name="Path 29438" d="M707.245,390.483a3.255,3.255,0,1,0,3.255,3.255,3.255,3.255,0,0,0-3.255-3.255" transform="translate(-200.762 -111.357)" fill="#fff"/>
      <path id="Path_29439" data-name="Path 29439" d="M705.49,379.773a1.773,1.773,0,0,0-2.6-1.776,3.594,3.594,0,0,0,.558-1.924c0-.051-.006-.1-.008-.152a2.32,2.32,0,1,0,.222-4.4,3.375,3.375,0,0,0-.228-.776c.019,0,.036.006.054.006a1.56,1.56,0,1,0-1.554-1.62,3.273,3.273,0,0,0-3.141-.043,4.057,4.057,0,0,0-.819-1.673,2.749,2.749,0,1,0-4.2-2.984,4.848,4.848,0,0,0-8.118,3.587c0,.153.009.3.023.453a5.012,5.012,0,0,0-5.4,2.321,6.4,6.4,0,0,0-1.014.371,3.289,3.289,0,0,0-5.228.284,3.479,3.479,0,0,0-3.013,1.906,2.864,2.864,0,0,0-.394-.039,2.828,2.828,0,1,0,2.034,4.785,3.437,3.437,0,0,0,1.069.289,4.08,4.08,0,0,0,.28,3.618,2.4,2.4,0,1,0,3.213,2.254,2.285,2.285,0,0,0-.026-.254c.114.009.229.017.345.017a4.084,4.084,0,0,0,2.454-.818l.051.019a2.153,2.153,0,0,0,3.193.173,6.487,6.487,0,0,0,4.99-4.631,2.39,2.39,0,0,0,2.162-.119,3.785,3.785,0,0,0,4.917.844,4.185,4.185,0,0,0,1.7.36c.067,0,.131-.007.2-.01a2.033,2.033,0,0,0,4-.425,3.58,3.58,0,0,0,.848-.5,1.77,1.77,0,0,0,.833,2.235,2.141,2.141,0,0,0-.127.7,2.167,2.167,0,1,0,2.73-2.084m-13.84-7.04c.037-.009.074-.019.11-.029l.062.068c-.067.029-.132.061-.2.094.009-.044.016-.089.024-.134" transform="translate(-190.441 -103.345)" fill="#fff"/>
      <path id="Path_29440" data-name="Path 29440" d="M726.1,375.942a2.6,2.6,0,0,0-2.6,2.6v.015h0a2.315,2.315,0,1,0,2.291,2.558,2.51,2.51,0,0,0,.313.031,2.6,2.6,0,1,0,0-5.208" transform="translate(-205.665 -107.21)" fill="#fff"/>
      <path id="Path_29441" data-name="Path 29441" d="M656.567,358.118a1.948,1.948,0,0,0,1.949-1.949c0-.046-.01-.089-.014-.134a2.294,2.294,0,0,0,.417.041,2.231,2.231,0,0,0,2.027-1.305,3.462,3.462,0,1,0-.3-2.327,2.221,2.221,0,0,0-3.924,1.793c-.053,0-.1-.016-.157-.016a1.949,1.949,0,0,0,0,3.9" transform="translate(-186.682 -99.736)" fill="#fff"/>
      <path id="Path_29442" data-name="Path 29442" d="M731.115,371.227a1.365,1.365,0,1,0,1.365,1.365,1.365,1.365,0,0,0-1.365-1.365" transform="translate(-208.108 -105.865)" fill="#fff"/>
      <path id="Path_29443" data-name="Path 29443" d="M774.777,274.632c-.53,3.754-1.059,6.243-1.059,6.243-.172.179-.344.357-.523.523s-.37.344-.563.5c-.165.139-.337.272-.51.4a2.533,2.533,0,0,1-.212.152,8.987,8.987,0,0,1-1,.635.146.146,0,0,1-.033.02,5.177,5.177,0,0,1-.463.245.276.276,0,0,1-.06.033c-.092.046-.185.093-.284.139-.126.059-.265.119-.4.179a12.406,12.406,0,0,1-1.218.443c-.318.1-.643.185-.966.258.039-.145.079-.291.119-.443q.964-3.625,1.576-6.932a26.13,26.13,0,0,0,5.6-2.4" transform="translate(-218.868 -78.319)" fill="#ff9540"/>
      <path id="Path_29444" data-name="Path 29444" d="M773.256,260.573a26.127,26.127,0,0,1-5.6,2.4c4.806-25.78-5.25-37.353-5.508-37.638.629.014,1.277.066,1.946.139,12.38,1.3,10.758,23.867,9.163,35.1" transform="translate(-217.347 -64.259)" fill="#ff9540"/>
    </g>
  </g>
</svg>
