<svg id="Group_6443" data-name="Group 6443" xmlns="http://www.w3.org/2000/svg" xmlns:xlink="http://www.w3.org/1999/xlink" width="83.853" height="69.11" viewBox="0 0 83.853 69.11">
  <defs>
    <clipPath id="clip-path">
      <rect id="Rectangle_3327" data-name="Rectangle 3327" width="83.853" height="69.11" fill="none"/>
    </clipPath>
  </defs>
  <g id="Group_5181" data-name="Group 5181" transform="translate(0 0)" clip-path="url(#clip-path)">
    <path id="Path_29146" data-name="Path 29146" d="M7.575,4.33A3.968,3.968,0,1,1,2.313,2.38,3.969,3.969,0,0,1,7.575,4.33" transform="translate(0 0.732)" fill="#00c3ff"/>
    <path id="Path_29147" data-name="Path 29147" d="M26.933,8.493l.356.025-.356.025A8.773,8.773,0,0,0,18.8,16.68l-.025.356-.025-.356a8.776,8.776,0,0,0-8.139-8.138l-.354-.025.354-.025A8.775,8.775,0,0,0,18.746.356L18.771,0,18.8.356a8.772,8.772,0,0,0,8.138,8.138" transform="translate(3.72 0)" fill="#00c3ff"/>
    <path id="Path_29148" data-name="Path 29148" d="M12.708,16.937l.209.015-.209.014a5.154,5.154,0,0,0-4.78,4.78l-.015.209L7.9,21.745a5.154,5.154,0,0,0-4.78-4.78l-.209-.014.209-.015a5.153,5.153,0,0,0,4.78-4.78l.014-.209.015.209a5.153,5.153,0,0,0,4.78,4.78" transform="translate(1.057 4.336)" fill="#00c3ff"/>
    <path id="Path_29149" data-name="Path 29149" d="M10.7,61.207a4.3,4.3,0,0,1-1.044-1.934C9.4,51.066,9.617,42.818,9.54,34.6a3.961,3.961,0,0,1,2.72-3.669L25.7,27.7l3.429-17.466A3.9,3.9,0,0,1,31.9,7.915c8.511-.3,17.078-.04,25.608-.131a3.956,3.956,0,0,1,3.782,3.128c1.24,4.774,1.664,10.054,2.82,14.881l0,17.18c11.956,13.449-5.935,31.346-19.388,19.388l-31.433,0a4.109,4.109,0,0,1-2.6-1.157m2.345-.833H43.133A13.653,13.653,0,0,1,59.942,40.154a19.269,19.269,0,0,1,2.186,1.224V25.707c-1.145-4.616-1.515-9.731-2.716-14.295a1.984,1.984,0,0,0-1.729-1.638l-24.958,0A1.949,1.949,0,0,0,30.875,11.2L27.4,29.36,12.843,32.805a1.936,1.936,0,0,0-1.318,1.7L11.531,58.6a2.132,2.132,0,0,0,1.51,1.772m46.844-9.237,4.052,4.26-5.465,5.4L46.192,48.543l5.371-5.518L55.77,47.07l4.455-4.446c.031-.114-.064-.144-.138-.2a9.387,9.387,0,0,0-1.65-.769,11.705,11.705,0,1,0,5.98,5.075Zm2.028-7.426L55.74,49.883l1.337,1.337,6.172-6.172a8.985,8.985,0,0,0-1.337-1.337M51.563,45.788l-2.64,2.7,9.611,9.548,2.638-2.7L58.527,52.7a3.881,3.881,0,0,1-1.446.511c-.934-.022-2.206-1.278-2.768-1.987a1.955,1.955,0,0,1,.041-2.722Z" transform="translate(3.456 2.819)"/>
    <path id="Path_29150" data-name="Path 29150" d="M69.068,41.716H67.083l-.011-15.489c-1.156-4.795-1.618-9.96-2.809-14.719A5.905,5.905,0,0,0,59.9,7.062c-9.108-.238-18.324-.238-27.431,0-3.166.853-4.02,2.873-4.635,5.813-.994,4.754-1.723,9.567-2.737,14.317-3.652.929-7.37,1.637-11.019,2.581-3.064.795-4.988,2.117-5.372,5.507l.015,24.774c-.012,2.228,2.745,5.236,4.954,5.236h30.7v1.986H13.85a9.12,9.12,0,0,1-1.426-.3,7.893,7.893,0,0,1-5.7-7.335c-.44-7.943.342-16.287,0-24.271a7.858,7.858,0,0,1,6.08-7.3l10.664-2.5c.9-4.527,1.573-9.123,2.557-13.634.891-4.094,3.178-6.591,7.511-7H58.84a7.879,7.879,0,0,1,7.181,5.6c1.442,4.946,1.739,10.749,3.036,15.787Z" transform="translate(2.388 1.789)"/>
    <path id="Path_29151" data-name="Path 29151" d="M12.507,59.841A2.136,2.136,0,0,1,11,58.069l0-24.092a1.932,1.932,0,0,1,1.318-1.7l14.558-3.445,3.474-18.156a1.949,1.949,0,0,1,1.848-1.434l24.959,0a1.984,1.984,0,0,1,1.729,1.638c1.2,4.564,1.571,9.679,2.716,14.295v15.67A19.27,19.27,0,0,0,59.41,39.62,13.653,13.653,0,0,0,42.6,59.841Zm43.3-43.779V14.206l-.129-.129H33.36v1.986Zm0,7.772V21.977l-.129-.129H33.49l-.129.129v1.858Zm1.9,5.871H31.46v1.9H57.71ZM44.068,37.477H14.883v1.856l.129.129H44.068Zm-5.785,7.771h-23.4v1.987H38.153l.129-.129ZM37.247,53.02H14.883v1.986H37.247Z" transform="translate(3.989 3.352)" fill="#fff"/>
    <path id="Path_29152" data-name="Path 29152" d="M51.057,42.308l4.533-4.4a11.641,11.641,0,1,1-5.98-5.075,9.342,9.342,0,0,1,1.65.769c.074.053.169.083.139.2l-4.455,4.446L42.736,34.2l-5.371,5.518L49.643,51.971l5.465-5.4Zm-13.773.086-1.332,1.412,1.332,1.348,1.333-1.411Zm2.764,2.764-1.333,1.411,1.333,1.349,1.332-1.412Zm2.689,2.768-1.349,1.332L42.81,50.6l1.333-1.329ZM45.5,50.688,44.15,52.02l1.412,1.333,1.349-1.333Z" transform="translate(12.283 11.647)" fill="#ff9540"/>
    <path id="Path_29153" data-name="Path 29153" d="M41.074,35.665l2.791,2.713a1.955,1.955,0,0,0-.041,2.722c.561.709,1.834,1.965,2.768,1.987a3.881,3.881,0,0,0,1.446-.511l2.645,2.636-2.638,2.7-9.611-9.548Z" transform="translate(13.946 12.941)" fill="#fff"/>
    <path id="Path_29154" data-name="Path 29154" d="M49.608,34.141a8.985,8.985,0,0,1,1.337,1.337L44.773,41.65l-1.337-1.337Z" transform="translate(15.761 12.388)" fill="#fff"/>
    <path id="Path_29155" data-name="Path 29155" d="M43.032,29.958v1.986H13.976l-.129-.129V29.958Z" transform="translate(5.024 10.871)"/>
    <rect id="Rectangle_3325" data-name="Rectangle 3325" width="26.25" height="1.9" transform="translate(35.449 33.057)"/>
    <path id="Path_29156" data-name="Path 29156" d="M37.247,35.66v1.856l-.129.129H13.847V35.66Z" transform="translate(5.024 12.94)"/>
    <path id="Path_29157" data-name="Path 29157" d="M49.856,14.774H27.406V12.788H49.726l.129.129Z" transform="translate(9.944 4.64)"/>
    <path id="Path_29158" data-name="Path 29158" d="M49.856,20.476H27.406V18.62l.129-.129H49.726l.129.129Z" transform="translate(9.944 6.71)"/>
    <rect id="Rectangle_3326" data-name="Rectangle 3326" width="22.364" height="1.986" transform="translate(18.871 56.372)"/>
    <path id="Path_29159" data-name="Path 29159" d="M40.73,43.711l1.406,1.344-1.332,1.33-1.424-1.342Z" transform="translate(14.289 15.861)"/>
    <path id="Path_29160" data-name="Path 29160" d="M36.725,39.653,38.057,41l-1.332,1.411-1.332-1.348Z" transform="translate(12.843 14.388)"/>
    <path id="Path_29161" data-name="Path 29161" d="M38.753,41.68l1.332,1.349L38.753,44.44l-1.332-1.348Z" transform="translate(13.578 15.124)"/>
    <path id="Path_29162" data-name="Path 29162" d="M42.758,45.739l1.412,1.332L42.82,48.4,41.408,47.07Z" transform="translate(15.025 16.597)"/>
    <path id="Path_29163" data-name="Path 29163" d="M64.307,34.96a5.22,5.22,0,1,1-10.439,0c0-2.884,5.217-8.624,5.217-8.624s5.222,5.74,5.222,8.624" transform="translate(19.546 9.556)" fill="#00c3ff"/>
  </g>
</svg>
