<svg id="Group_6436" data-name="Group 6436" xmlns="http://www.w3.org/2000/svg" xmlns:xlink="http://www.w3.org/1999/xlink" width="101.867" height="82.427" viewBox="0 0 101.867 82.427">
  <defs>
    <clipPath id="clip-path">
      <rect id="Rectangle_3295" data-name="Rectangle 3295" width="101.867" height="82.427" fill="none"/>
    </clipPath>
  </defs>
  <g id="Group_5133" data-name="Group 5133" transform="translate(0 0)" clip-path="url(#clip-path)">
    <path id="Path_28680" data-name="Path 28680" d="M40.307,19.044a4.994,4.994,0,0,1-9.988,0c0-2.758,4.994-8.252,4.994-8.252s4.994,5.494,4.994,8.252" transform="translate(6.803 2.422)" fill="#00c3ff"/>
    <path id="Path_28681" data-name="Path 28681" d="M81.626,43.474a4.408,4.408,0,1,1-5.456,3.017,4.408,4.408,0,0,1,5.456-3.017" transform="translate(17.051 9.716)" fill="#00c3ff"/>
    <path id="Path_28682" data-name="Path 28682" d="M6.805,46.884a3.565,3.565,0,1,1-4.727-1.752,3.565,3.565,0,0,1,4.727,1.752" transform="translate(0 10.053)" fill="#00c3ff"/>
    <path id="Path_28683" data-name="Path 28683" d="M31.438,23.973l.552.039-.552.038A13.635,13.635,0,0,0,18.791,36.7l-.039.552-.039-.552A13.635,13.635,0,0,0,6.066,24.05l-.552-.038.552-.039A13.633,13.633,0,0,0,18.713,11.326l.039-.552.039.552A13.633,13.633,0,0,0,31.438,23.973" transform="translate(1.237 2.418)" fill="#00c3ff"/>
    <path id="Path_28684" data-name="Path 28684" d="M65.612,31.33l.4.04-.4.039a5.888,5.888,0,0,0-5.277,5.277l-.04.4-.039-.4a5.89,5.89,0,0,0-5.278-5.277l-.4-.039.4-.04a5.89,5.89,0,0,0,5.278-5.277l.039-.4.04.4a5.888,5.888,0,0,0,5.277,5.277" transform="translate(12.245 5.756)" fill="#00c3ff"/>
    <path id="Path_28685" data-name="Path 28685" d="M82.4,41.094l-.055-.253a1.609,1.609,0,0,0-1.381-1.046,24.332,24.332,0,0,0-3.687-.016,29.391,29.391,0,0,1-3.142.033,1.157,1.157,0,0,0-1,.291,1.373,1.373,0,0,0-.612.945v5.561H71.283V45.592a1.81,1.81,0,0,0-.471-.932l-9.064-9.052a1.528,1.528,0,0,0-.807-.359H53.5V34h6.451c.68,0,1.256-.823,1.339-1.366a30.436,30.436,0,0,0,.012-4.7,1.664,1.664,0,0,0-1.224-1.41l-29.737-.043L30.2,26.5a1.654,1.654,0,0,0-1.335,1.549,30.408,30.408,0,0,0,.016,4.59c.082.545.659,1.368,1.339,1.368h6.45V35.25H28.146c-.513,0-1.452.795-1.452,1.353v7.636H22.416c-.551,0-1.254.917-1.254,1.353v4.277H19.917V43.222c0-.938-1.353-1.3-1.687-1.338a26.825,26.825,0,0,0-4.067-.016,2.012,2.012,0,0,0-1.743.943l-.071.133-.055,25.543.043.229a1.767,1.767,0,0,0,1.731,1.148,28.753,28.753,0,0,0,4.377-.017c.441-.062,1.473-.593,1.473-1.338V61.959h1.245v5.364a1.3,1.3,0,0,0,.618.96,1.547,1.547,0,0,0,1.085.393l8.167.016,7.1,7.259.939.522,30.583,0a.884.884,0,0,0,.126.009,1.443,1.443,0,0,0,.9-.4,1.635,1.635,0,0,0,.6-1.058V67.787h1.245v5.167a1.368,1.368,0,0,0,.613.945,1.115,1.115,0,0,0,.879.309,30.112,30.112,0,0,1,3.22.013,28.685,28.685,0,0,0,3.614-.011A1.65,1.65,0,0,0,82.375,73l.027-.089ZM79.146,70.909H75.727V42.994h3.418Zm-6.618-6.421H71.283V49.81h1.245ZM58.007,30.8H32.166V29.757H58.007ZM50.2,35.25H39.97V34H50.2ZM29.992,45.888v-7.34h30.1l7.89,7.89V73.28H40.157L32.822,65.85c-.6-.473-.844-.473-.923-.473H24.461V47.438H28.64c.675,0,1.353-1.063,1.353-1.55M21.162,58.66H19.917v-5.59h1.245Zm-4.544,7.9H15.471v-21.4h1.147Z" transform="translate(2.758 5.942)"/>
    <path id="Path_28686" data-name="Path 28686" d="M67.215,6.046c-.061.086.405.622.5.737a20.086,20.086,0,0,0,2.023,2.324c.542.408,1.475.749,2.116,1.145,4.493,2.773,10.01,9.175,13.242,13.428,1.5,1.976,1.695,4.12.1,6.124-2.9,2.179-5.745,5.4-8.7,7.4-4.975,3.372-8.028-3.787-10.956-6.515a6.422,6.422,0,0,1-.943-7.556,10.82,10.82,0,0,0,.89-1.481,4.646,4.646,0,0,0-1.038-4,37.072,37.072,0,0,0-2.466-2.817c-.193,1.452-.8,4.384-2.8,3.93-1.048-.238-.788-1.581-.872-2.288-.154-1.31-1.355-2.167-2.062-3.18l-.2,0c-1.243.869-2.452,2.882-4.051,1.386a24.021,24.021,0,0,1-2.019-2.427,1.669,1.669,0,0,1,.236-2.121C53.694,7.5,56.879,4.2,60.354,1.6a7.176,7.176,0,0,1,9.278.2,8.346,8.346,0,0,1,1.71,2.146.988.988,0,0,1-.824,1.2,5.558,5.558,0,0,1-.971-.081,4.3,4.3,0,0,0-2.332.978M68.1,3.278a5,5,0,0,0-6.468-.1L54.671,9.057l1.24,1.539c.284.043.7-.508.939-.642.709-.387,2.052,0,2.863-.2,2.34-1.681,4.479-4.107,6.818-5.726A5.421,5.421,0,0,1,68.1,3.278m-6.618,7.609,2.025,2.462,4.075-3.5L65.6,7.54ZM53.058,10.5A3.4,3.4,0,0,0,52,11.428l1.331,1.528L54.36,11.94c-.187-.242-1.077-1.456-1.3-1.436m16.2.694-4.406,3.7c1.658,1.932,3.214,4.065,2.736,6.781-.246,1.4-1.234,2.148-1.583,3.455a4.042,4.042,0,0,0,.678,3.723c1.575,2.182,3.78,4.178,5.376,6.379a2.567,2.567,0,0,0,3.252.29l8.209-6.9c1.1-1.327.869-2.481-.105-3.755-1.813-2.37-4.278-5.219-6.316-7.414A28.714,28.714,0,0,0,69.255,11.2m-9.893.675h-1.63a21.529,21.529,0,0,1,2.124,2.767c.218.072.155-.225.152-.35-.01-.375-.317-2.317-.646-2.417" transform="translate(11.153 0)"/>
    <path id="Path_28687" data-name="Path 28687" d="M50.831,13.753a1.05,1.05,0,0,1,1.191,1.489l-4.143,8.7a1.021,1.021,0,0,1-1.813-.926l4.083-8.659a1.317,1.317,0,0,1,.682-.6" transform="translate(10.32 3.08)"/>
    <path id="Path_28688" data-name="Path 28688" d="M49.076,10.207a1.026,1.026,0,0,1,.257,2.02c-2.758,1.112-6.254,1.53-9.091,2.565a1.027,1.027,0,1,1-.735-1.919Z" transform="translate(8.713 2.29)"/>
    <path id="Path_28689" data-name="Path 28689" d="M49.649,11.979a1.031,1.031,0,0,1,.972,1.762l-5.748,4.822A1.025,1.025,0,0,1,43.6,16.994c1.841-1.426,3.58-3.263,5.437-4.638a2.209,2.209,0,0,1,.611-.377" transform="translate(9.725 2.681)"/>
    <path id="Path_28690" data-name="Path 28690" d="M66.479,71.792h-28.7l-7.455-7.559a3.705,3.705,0,0,0-.546-.343H21.731V44.727h4.791c.245,0,.741-.68.741-.939V35.836H58.231l8.249,8.249ZM46.426,51.641l5.868-7.023a1.012,1.012,0,0,0-.681-1.672c-2.761.2-5.883-.261-8.6,0-.871.083-1,.7-1.38,1.386-2.137,3.837-3.918,7.9-6.025,11.754-.291.475.324,1.386.792,1.386h4.988l-1.981,6.079a1.045,1.045,0,0,0,1.621.919l11.425-11.2c.509-.5-.043-1.631-.643-1.631Z" transform="translate(4.876 8.041)" fill="#fff"/>
    <path id="Path_28691" data-name="Path 28691" d="M68.246,39.467v29.14H63.6V39.615l.148-.148Z" transform="translate(14.27 8.856)" fill="#fff"/>
    <rect id="Rectangle_3292" data-name="Rectangle 3292" width="27.066" height="2.272" transform="translate(34.312 35.085)" fill="#fff"/>
    <path id="Path_28692" data-name="Path 28692" d="M16.76,41.242v22.62H14.538l-.148-.148V41.39l.148-.148Z" transform="translate(3.229 9.254)" fill="#fff"/>
    <path id="Path_28693" data-name="Path 28693" d="M62.442,60.938h-2.47v-15.9h2.321l.148.148Z" transform="translate(13.456 10.105)" fill="#ff9540"/>
    <rect id="Rectangle_3293" data-name="Rectangle 3293" width="11.459" height="2.47" transform="translate(42.115 39.334)" fill="#fff"/>
    <rect id="Rectangle_3294" data-name="Rectangle 3294" width="2.47" height="6.816" transform="translate(22.063 58.399)" fill="#ff9540"/>
    <path id="Path_28694" data-name="Path 28694" d="M66.48,9.146A28.714,28.714,0,0,1,74.321,15.4c2.039,2.194,4.5,5.044,6.317,7.415.976,1.275,1.2,2.427.105,3.754l-8.209,6.9a2.566,2.566,0,0,1-3.252-.29c-1.6-2.2-3.8-4.2-5.376-6.379a4.041,4.041,0,0,1-.678-3.723c.349-1.306,1.337-2.056,1.583-3.455.477-2.716-1.079-4.848-2.736-6.781Z" transform="translate(13.927 2.052)" fill="#fff"/>
    <path id="Path_28695" data-name="Path 28695" d="M67.195,2.9a5.4,5.4,0,0,0-1.571.751C63.283,5.273,61.144,7.7,58.8,9.38c-.811.2-2.154-.187-2.861.2-.244.133-.656.684-.94.642l-1.24-1.539,6.964-5.875a5,5,0,0,1,6.468.1" transform="translate(12.062 0.375)" fill="#fff"/>
    <path id="Path_28696" data-name="Path 28696" d="M59.328,9.5l4.116-3.346,1.983,2.308-4.076,3.5Z" transform="translate(13.311 1.382)" fill="#fff"/>
    <path id="Path_28697" data-name="Path 28697" d="M52.638,8.579c.224-.02,1.115,1.194,1.3,1.436l-1.028,1.016L51.579,9.5a3.372,3.372,0,0,1,1.059-.924" transform="translate(11.573 1.925)" fill="#fff"/>
    <path id="Path_28698" data-name="Path 28698" d="M57.892,9.7c.329.1.637,2.042.646,2.417,0,.125.066.422-.152.35A21.529,21.529,0,0,0,56.262,9.7Z" transform="translate(12.623 2.176)" fill="#fff"/>
    <path id="Path_28699" data-name="Path 28699" d="M43.9,50.353h5.384c.6,0,1.151,1.131.642,1.631L38.5,63.18a1.045,1.045,0,0,1-1.622-.919l1.981-6.079H33.87c-.468,0-1.084-.91-.792-1.386,2.107-3.857,3.89-7.916,6.026-11.753.383-.686.509-1.3,1.38-1.386,2.718-.258,5.84.2,8.6,0a1.011,1.011,0,0,1,.68,1.672Zm2.865-6.618H41.034L35.7,54.107h4.891a3.526,3.526,0,0,1,.546.37,1.326,1.326,0,0,1,.2.667,19.981,19.981,0,0,1-.926,2.936c-.026.1-.152.31-.023.373l6.174-6.025H41.477a1.132,1.132,0,0,1-.765-1.457Z" transform="translate(7.405 9.329)" fill="#ff9540"/>
    <path id="Path_28700" data-name="Path 28700" d="M46.269,43.34l-6.051,7.236a1.132,1.132,0,0,0,.765,1.457H46.07L39.9,58.058c-.129-.064,0-.272.023-.373a19.983,19.983,0,0,0,.926-2.936,1.326,1.326,0,0,0-.2-.667,3.526,3.526,0,0,0-.546-.37H35.2L40.54,43.34Z" transform="translate(7.899 9.724)" fill="#ff9540"/>
  </g>
</svg>
