<svg id="Group_6445" data-name="Group 6445" xmlns="http://www.w3.org/2000/svg" xmlns:xlink="http://www.w3.org/1999/xlink" width="120" height="45.117" viewBox="0 0 120 45.117">
  <defs>
    <clipPath id="clip-path">
      <rect id="Rectangle_3274" data-name="Rectangle 3274" width="120" height="45.117" fill="#ff9540"/>
    </clipPath>
  </defs>
  <g id="Group_5081" data-name="Group 5081" clip-path="url(#clip-path)">
    <path id="Path_28575" data-name="Path 28575" d="M159.926,104.845a5.563,5.563,0,0,0,.42,2.171,5.116,5.116,0,0,0,1.179,1.734,5.6,5.6,0,0,0,3.96,1.574,4.975,4.975,0,0,0,2.088-.42,4.378,4.378,0,0,0,1.559-1.179,5.407,5.407,0,0,0,.976-1.763,6.813,6.813,0,0,0,.339-2.2V95.329a3.184,3.184,0,0,1,.3-1.37,3.75,3.75,0,0,1,.786-1.112,3.612,3.612,0,0,1,2.522-1.016,3.358,3.358,0,0,1,2.44,1.016,3.612,3.612,0,0,1,.732,1.112,3.451,3.451,0,0,1,.272,1.37v9.3a13.626,13.626,0,0,1-.9,4.949,12.734,12.734,0,0,1-2.48,4.053,11.529,11.529,0,0,1-8.636,3.743,12.214,12.214,0,0,1-4.895-.99,12.892,12.892,0,0,1-4.013-2.7,12.629,12.629,0,0,1-2.712-4,12.2,12.2,0,0,1-.989-4.894V95.387a3.514,3.514,0,0,1,4.867-3.227,3.633,3.633,0,0,1,1.126.745,3.568,3.568,0,0,1,.772,1.112,3.312,3.312,0,0,1,.285,1.37Z" transform="translate(-120.29 -72.257)" fill="#ff9540"/>
    <path id="Path_28576" data-name="Path 28576" d="M275.408,68.48V49.824a3.83,3.83,0,0,1,.271-1.436,3.43,3.43,0,0,1,.76-1.167,3.673,3.673,0,0,1,1.139-.773,3.55,3.55,0,0,1,2.779,0,3.568,3.568,0,0,1,1.112.773,3.381,3.381,0,0,1,.732,1.167,4.005,4.005,0,0,1,.258,1.436V57.01a13.6,13.6,0,0,1,2.806-1.058,12.325,12.325,0,0,1,3.078-.38,12.514,12.514,0,0,1,5.03,1.018,12.97,12.97,0,0,1,4.095,2.779,13.266,13.266,0,0,1,2.766,4.107,12.916,12.916,0,0,1,0,10.047,13.212,13.212,0,0,1-2.766,4.123,13,13,0,0,1-4.095,2.779,12.889,12.889,0,0,1-10.033,0,13.135,13.135,0,0,1-6.9-6.9,12.385,12.385,0,0,1-1.031-5.016Zm7.051.026a5.59,5.59,0,0,0,.474,2.292,6.116,6.116,0,0,0,1.274,1.871,5.936,5.936,0,0,0,1.871,1.26,5.649,5.649,0,0,0,2.264.462,5.721,5.721,0,0,0,2.291-.462,5.788,5.788,0,0,0,1.858-1.26,6.053,6.053,0,0,0,1.247-1.871,5.92,5.92,0,0,0,0-4.582,6.062,6.062,0,0,0-1.247-1.872,5.819,5.819,0,0,0-1.858-1.261,5.742,5.742,0,0,0-2.291-.46,5.67,5.67,0,0,0-2.264.46,5.968,5.968,0,0,0-1.871,1.261,6.126,6.126,0,0,0-1.274,1.872,5.582,5.582,0,0,0-.474,2.29" transform="translate(-216.703 -36.324)" fill="#ff9540"/>
    <path id="Path_28577" data-name="Path 28577" d="M467.58,68.48V68.7a12.727,12.727,0,0,1-1.085,4.949,13.113,13.113,0,0,1-6.887,6.792,12.861,12.861,0,0,1-9.993-.012,12.993,12.993,0,0,1-4.094-2.779,13.214,13.214,0,0,1-2.766-4.123,12.922,12.922,0,0,1,0-10.047,13.268,13.268,0,0,1,2.766-4.107,12.969,12.969,0,0,1,4.094-2.779,12.514,12.514,0,0,1,5.03-1.018,12.164,12.164,0,0,1,3.064.38,14.335,14.335,0,0,1,2.82,1.058V49.824a3.992,3.992,0,0,1,.258-1.436,3.362,3.362,0,0,1,.732-1.167,3.55,3.55,0,0,1,1.112-.773,3.55,3.55,0,0,1,2.779,0,3.683,3.683,0,0,1,1.139.773,3.429,3.429,0,0,1,.759,1.167,3.83,3.83,0,0,1,.272,1.436Zm-7.051.026a5.593,5.593,0,0,0-.474-2.29,6.143,6.143,0,0,0-1.275-1.872,5.969,5.969,0,0,0-1.871-1.261,5.674,5.674,0,0,0-2.264-.46,5.736,5.736,0,0,0-2.291.46,5.811,5.811,0,0,0-1.858,1.261,6.04,6.04,0,0,0-1.247,1.872,5.921,5.921,0,0,0,0,4.582,6.03,6.03,0,0,0,1.247,1.871,5.78,5.78,0,0,0,1.858,1.26,5.715,5.715,0,0,0,2.291.462,5.653,5.653,0,0,0,2.264-.462,5.936,5.936,0,0,0,1.871-1.26,6.133,6.133,0,0,0,1.275-1.871,5.6,5.6,0,0,0,.474-2.292" transform="translate(-347.579 -36.324)" fill="#ff9540"/>
    <path id="Path_28578" data-name="Path 28578" d="M402.659,72.44V49.581a3.612,3.612,0,0,1,1-2.508,3.413,3.413,0,0,1,1.072-.745,3.192,3.192,0,0,1,1.315-.271,3.652,3.652,0,0,1,1.4.271,3.739,3.739,0,0,1,1.166.745,3.6,3.6,0,0,1,.8,1.126,3.276,3.276,0,0,1,.3,1.383V72.44" transform="translate(-316.83 -36.239)" fill="#ff9540"/>
    <path id="Path_28579" data-name="Path 28579" d="M409.708,87.734v22.859a3.613,3.613,0,0,1-1,2.508,3.413,3.413,0,0,1-1.072.745,3.192,3.192,0,0,1-1.315.271,3.652,3.652,0,0,1-1.4-.271,3.738,3.738,0,0,1-1.166-.745,3.6,3.6,0,0,1-.8-1.126,3.276,3.276,0,0,1-.3-1.383V87.734" transform="translate(-316.829 -69.033)" fill="#ff9540"/>
    <path id="Path_28580" data-name="Path 28580" d="M22.854,15.517A11.739,11.739,0,1,0,0,11.743c0,.036,0,.072.005.108V29.289c0,.042-.005.083-.005.126a15.662,15.662,0,1,0,22.854-13.9M11.743,7.08A4.664,4.664,0,1,1,7.08,11.743,4.67,4.67,0,0,1,11.743,7.08M15.662,38a8.582,8.582,0,1,1,8.582-8.582A8.592,8.592,0,0,1,15.662,38" fill="#ff9540"/>
  </g>
</svg>
