<svg xmlns="http://www.w3.org/2000/svg" xmlns:xlink="http://www.w3.org/1999/xlink" width="71.187" height="70.293" viewBox="0 0 71.187 70.293">
  <defs>
    <clipPath id="clip-path">
      <rect id="Rectangle_3495" data-name="Rectangle 3495" width="71.187" height="70.293" transform="translate(0 0)" fill="none"/>
    </clipPath>
  </defs>
  <g id="Group_6554" data-name="Group 6554" transform="translate(0 0)">
    <g id="Group_6553" data-name="Group 6553" clip-path="url(#clip-path)">
      <path id="Path_30073" data-name="Path 30073" d="M30.14,42.536l.128.009-.128.009A3.175,3.175,0,0,0,27.195,45.5l-.009.128-.009-.128a3.174,3.174,0,0,0-2.945-2.945l-.128-.009.128-.009a3.175,3.175,0,0,0,2.947-2.945l.008-.128.009.128a3.175,3.175,0,0,0,2.944,2.945" fill="#00c3ff"/>
      <path id="Path_30074" data-name="Path 30074" d="M45.488,41.277l.049,0-.049,0a1.221,1.221,0,0,0-1.132,1.132l0,.049,0-.049a1.22,1.22,0,0,0-1.131-1.132l-.05,0,.05,0a1.22,1.22,0,0,0,1.131-1.132l0-.049,0,.049a1.22,1.22,0,0,0,1.132,1.132" fill="#00c3ff"/>
      <path id="Path_30075" data-name="Path 30075" d="M59.384,49.457c-.155-.166-.434-.307-.6-.474s-.315-.438-.492-.616c-.041,0-.432.553-.512.633-.134.132-.364.287-.518.411a.305.305,0,0,1-.107.065c-.007.009.051.06.064.071.171.149.417.292.572.448.076.075.46.627.5.627.18-.192.325-.455.509-.637s.427-.313.609-.483c.007-.023-.014-.032-.027-.044m-1.091-.447h0c-.033.014-.18.232-.223.277l0,0,0,0c.043-.045.19-.263.223-.277m-.466.475c-.007.007-.008.013-.007.016a.019.019,0,0,1,.007-.016m.47.454.47-.463a1.5,1.5,0,0,1-.47-.461,1.5,1.5,0,0,0,.47.461Z" fill="#00c3ff"/>
      <path id="Path_30076" data-name="Path 30076" d="M9.318,40.6l4.217,0c-.659-.893-.091-2.243-.3-3.041-.059-.222-1.927-.271-2.262-2.661a62.379,62.379,0,0,1-.03-10.027c.319-2.785,2.651-3.08,3.565-5.352A2.542,2.542,0,0,1,11.1,17.075c.084-3.062,4.017-2.924,6-1.779,1.179-3.041,1.015-6.765,5.016-7.152,8.684-.839,18.737.643,27.568.037,3.23.5,3.445,4.65,4.4,7.115a5.84,5.84,0,0,1,4.031-.626c3.305.528,2.1,6.139-1.437,4.844-.421.543,2.667,2.909,3.052,3.594.734,1.306.74,9.954.484,11.785-.335,2.39-2.2,2.439-2.263,2.661-.212.8.356,2.148-.3,3.041l4.217,0V23.893a7.259,7.259,0,0,1,1.311-1.933,3.757,3.757,0,0,1,6.075,2.333l.057,39.192c.087,1.139,1.1,1.4,1.3,2.6a9.061,9.061,0,0,1-.3,3.713H61.057c-.693-.719-.663-3.083-.479-4.047.156-.822,1.29-1.473,1.29-1.63v-18H50.352a5.847,5.847,0,0,1-1.479-.791c-2.039-1.792-.141-5.285-.629-7.643h-25.3c-.488,2.358,1.41,5.851-.628,7.643a5.852,5.852,0,0,1-1.48.791H9.318v18c0,.157,1.135.808,1.291,1.63.183.964.213,3.328-.48,4.047H.884a9.079,9.079,0,0,1-.3-3.713c.194-1.191,1.208-1.456,1.3-2.6l.057-39.192A3.757,3.757,0,0,1,8.007,21.96a7.259,7.259,0,0,1,1.311,1.933ZM53.11,17.892c-.887-1.966-1.543-7.536-3.8-8.04L21.4,10.027c-1.683.717-2.565,6.114-3.326,7.865ZM13.425,16.324c-2.291.726,1.841,2.71,3.023,1.081a2.559,2.559,0,0,0-3.023-1.081m42.508.014c-.546.165-1.667,1.238-.671,1.509,3.9,1.059,3.92-2.5.671-1.509m2.367,19.4V23.893c-1.853-1.509-3.134-4.152-5.714-4.342-10.616.442-21.876-.714-32.417-.053a14.868,14.868,0,0,0-3.381.511c-.962.43-2.82,3.177-3.9,3.884v11.84ZM7.372,63.954V23.893c0-1.274-3.568-1.274-3.568,0V63.954Zm60.01,0V23.893c0-1.274-3.568-1.274-3.568,0V63.954ZM21,37.679H15.157V40.6H21Zm35.033,0H50.19V40.6h5.839ZM21.32,42.545h-12v1.622h12Zm40.548,0h-12v1.622h12ZM8.669,65.576H2.993l-.436.537-.051,2.058h6c.762,0,.416-2.06.162-2.6m60.011,2.6-.051-2.058-.436-.537H62.517c-.254.535-.6,2.6.162,2.6Z"/>
      <path id="Path_30077" data-name="Path 30077" d="M70.683,70.293H60.845l-.147-.152c-.922-.957-.768-3.663-.611-4.488a3.146,3.146,0,0,1,1.171-1.619l.111-.095V46.613H50.353a5.463,5.463,0,0,1-1.81-.915c-1.477-1.3-1.18-3.319-.918-5.1a11.019,11.019,0,0,0,.187-2.415H23.376a11.019,11.019,0,0,0,.187,2.415c.261,1.783.558,3.805-.919,5.1a5.458,5.458,0,0,1-1.809.915H9.819V63.939l.111.095A3.151,3.151,0,0,1,11.1,65.653c.156.825.31,3.531-.611,4.487l-.148.153H.5l-.1-.367A9.506,9.506,0,0,1,.087,66a3.114,3.114,0,0,1,.775-1.528,1.788,1.788,0,0,0,.516-1.024l.054-39.156a4.341,4.341,0,0,1,2.784-3.424,4.153,4.153,0,0,1,4.109.706,6.5,6.5,0,0,1,1.494,2.319V40.1l2.959,0a4.9,4.9,0,0,1-.03-1.486,5.171,5.171,0,0,0,.03-.741l-.01,0a3.3,3.3,0,0,1-2.293-2.9,62.456,62.456,0,0,1-.031-10.152,5.2,5.2,0,0,1,2.027-3.471,8.117,8.117,0,0,0,1.115-1.187,3.119,3.119,0,0,1-1.8-.612,2.938,2.938,0,0,1-1.19-2.479,2.816,2.816,0,0,1,1.451-2.523,5.722,5.722,0,0,1,4.771.059c.176-.526.324-1.072.469-1.6.668-2.466,1.36-5.016,4.778-5.346A109.439,109.439,0,0,1,36.61,7.606a123.076,123.076,0,0,0,13.039.077l.056,0,.055.008c2.8.432,3.588,3.278,4.218,5.564.128.464.251.91.383,1.321a6.958,6.958,0,0,1,3.836-.4,2.676,2.676,0,0,1,2.22,1.886,3.443,3.443,0,0,1-.86,3.4,2.62,2.62,0,0,1-1.98.739c.382.42.926.934,1.281,1.269a8.187,8.187,0,0,1,1.312,1.389c.836,1.488.792,10.315.542,12.1a3.3,3.3,0,0,1-2.293,2.9l-.01,0a5.06,5.06,0,0,0,.031.742,4.9,4.9,0,0,1-.031,1.485l2.96,0V23.893a6.511,6.511,0,0,1,1.493-2.319,4.149,4.149,0,0,1,4.109-.7,4.318,4.318,0,0,1,2.776,3.337l.065,39.279a1.781,1.781,0,0,0,.514.987A3.122,3.122,0,0,1,71.1,66a9.509,9.509,0,0,1-.317,3.926Zm-9.375-1h8.607a8.177,8.177,0,0,0,.2-3.132,2.157,2.157,0,0,0-.565-1.061,2.692,2.692,0,0,1-.735-1.576l-.058-39.231a3.318,3.318,0,0,0-2.13-2.486,3.116,3.116,0,0,0-3.128.54,8.225,8.225,0,0,0-1.14,1.638L62.369,41.1l-5.706,0,.587-.8a2.439,2.439,0,0,0,.193-1.6,3.767,3.767,0,0,1,.028-1.269c.079-.3.338-.4.588-.493a2.341,2.341,0,0,0,1.663-2.109c.274-1.952.195-10.37-.424-11.47A10.3,10.3,0,0,0,58.171,22.2c-1.409-1.331-2.428-2.293-1.884-2.994l.224-.289.343.126a1.835,1.835,0,0,0,2.014-.3,2.446,2.446,0,0,0,.594-2.384,1.665,1.665,0,0,0-1.423-1.2,5.485,5.485,0,0,0-3.674.55l-.518.346-.225-.581c-.231-.593-.414-1.258-.608-1.961-.606-2.2-1.232-4.471-3.354-4.833A124.288,124.288,0,0,1,36.569,8.6a109.223,109.223,0,0,0-14.405.037c-2.731.264-3.251,2.183-3.911,4.613a22.256,22.256,0,0,1-.687,2.222l-.211.544-.5-.291a4.949,4.949,0,0,0-4.313-.32,1.819,1.819,0,0,0-.939,1.679,1.926,1.926,0,0,0,.786,1.648,2.151,2.151,0,0,0,1.964.3l1.025-.341-.4,1a6.447,6.447,0,0,1-1.818,2.37,4.259,4.259,0,0,0-1.714,2.852,62.224,62.224,0,0,0,.027,9.9,2.343,2.343,0,0,0,1.663,2.109c.25.1.509.2.588.493a3.767,3.767,0,0,1,.028,1.269,2.433,2.433,0,0,0,.194,1.6l.587.8-5.706,0V23.893a10.576,10.576,0,0,0-1.128-1.546,3.12,3.12,0,0,0-3.128-.54A3.329,3.329,0,0,0,2.424,24.38L2.376,63.486A2.709,2.709,0,0,1,1.64,65.1a2.166,2.166,0,0,0-.566,1.061,8.2,8.2,0,0,0,.2,3.132H9.88a6.929,6.929,0,0,0,.238-3.454c-.073-.384-.554-.8-.842-1.049s-.457-.394-.457-.673v-18.5H20.835a8.57,8.57,0,0,0,1.149-.666c1.069-.939.836-2.527.589-4.207a9.488,9.488,0,0,1-.12-3.161l.083-.4H48.652l.082.4a9.435,9.435,0,0,1-.12,3.161c-.246,1.681-.479,3.268.589,4.207a6.647,6.647,0,0,0,1.221.674l11.945-.008v18.5c0,.279-.182.436-.457.673s-.769.665-.843,1.049a6.939,6.939,0,0,0,.239,3.454m7.885-.622H62.679a.848.848,0,0,1-.735-.415c-.492-.777-.073-2.483.122-2.894l.135-.286h6.231l.693.855Zm-6.43-1h5.4L68.134,66.3l-.178-.22H62.869a3.717,3.717,0,0,0-.106,1.6m-54.255,1H1.994l.068-2.74.693-.855H8.986l.136.286c.194.41.613,2.115.122,2.894a.85.85,0,0,1-.736.415m-5.488-1h5.4a3.7,3.7,0,0,0-.106-1.6H3.232l-.179.22Zm64.863-3.216H63.315V23.893c0-.87.918-1.455,2.284-1.455s2.284.585,2.284,1.455Zm-3.568-1h2.568V23.893c0-.185-.5-.455-1.284-.455s-1.284.27-1.284.455Zm-56.442,1H3.3V23.893c0-.87.918-1.455,2.284-1.455s2.285.585,2.285,1.455Zm-3.569-1H6.873V23.893c0-.185-.5-.455-1.285-.455s-1.284.27-1.284.455ZM62.369,44.667h-13V42.045h13Zm-12-1h11v-.622h-11Zm-28.545,1h-13V42.045h13Zm-12-1h11v-.622h-11ZM56.53,41.1H49.691V37.18H56.53Zm-5.839-1H55.53V38.18H50.691ZM21.5,41.1H14.658V37.18H21.5Zm-5.839-1H20.5V38.18H15.658ZM58.8,36.233H12.387V23.623l.226-.148a11.97,11.97,0,0,0,1.769-1.814,8.823,8.823,0,0,1,2.2-2.108A15.551,15.551,0,0,1,20.139,19c5.632-.353,11.554-.188,17.281-.027,5.013.141,10.2.286,15.145.08,2.033.146,3.278,1.531,4.482,2.871a14.6,14.6,0,0,0,1.569,1.583l.184.15Zm-45.413-1H57.8V24.126a17.486,17.486,0,0,1-1.5-1.534c-1.121-1.248-2.179-2.426-3.754-2.542-4.924.209-10.128.063-15.157-.078-5.7-.16-11.6-.325-17.191.025a14.165,14.165,0,0,0-3.209.469,9.8,9.8,0,0,0-1.854,1.85,15.461,15.461,0,0,1-1.751,1.831ZM56.611,18.55a5.657,5.657,0,0,1-1.48-.22.9.9,0,0,1-.766-.862c-.011-.726.915-1.454,1.423-1.609,1.242-.376,2.274-.2,2.761.462a1.193,1.193,0,0,1,.008,1.414,2.222,2.222,0,0,1-1.946.815m-1.2-1.189c1.483.388,2.158.045,2.32-.193a.2.2,0,0,0,.009-.257c-.173-.235-.768-.367-1.663-.095a1.629,1.629,0,0,0-.666.545M14.986,18.53a4,4,0,0,1-1.224-.2c-.736-.241-1.52-.743-1.517-1.429,0-.332.181-.784,1.029-1.053a3.059,3.059,0,0,1,3.584,1.27l.206.292-.21.29a2.215,2.215,0,0,1-1.868.83M13.577,16.8h0a.759.759,0,0,0-.35.173,3.327,3.327,0,0,0,1.388.531,1.944,1.944,0,0,0,1.151-.148,2,2,0,0,0-2.189-.556m40.308,1.591H17.315l.3-.7a21.73,21.73,0,0,0,.711-2.263c.693-2.469,1.477-5.266,2.877-5.863l.193-.04,27.964-.176.056.013c1.9.424,2.705,3.384,3.417,5.995a18.4,18.4,0,0,0,.729,2.327Zm-35.09-1h33.59c-.169-.507-.333-1.108-.513-1.77-.567-2.079-1.34-4.916-2.621-5.27l-27.731.175c-.924.527-1.7,3.312-2.227,5.173-.178.634-.341,1.212-.5,1.692"/>
      <path id="Path_30078" data-name="Path 30078" d="M38.513,56.818l.141,4.237,2.085.347c.613.369.488,7.248.044,8.391H30.4c-.444-1.143-.568-8.022.044-8.391l2.086-.347.141-4.237Zm-1.621,1.62h-2.6v2.923h2.6Zm2.269,4.543H32.025v5.19h7.136Z"/>
      <path id="Path_30079" data-name="Path 30079" d="M34.62,48.222a.979.979,0,0,1,1.946,0v5.19c0,.644-1.946.644-1.946,0a40.1,40.1,0,0,1,0-5.19"/>
      <path id="Path_30080" data-name="Path 30080" d="M28.013,50.027c.481-.087,4.154,3.612,3.051,4.369-1.148.962-4.053-3.167-3.763-3.736Z"/>
      <path id="Path_30081" data-name="Path 30081" d="M42.937,50.032l.949.628c.289.57-2.615,4.7-3.763,3.736-1.126-.772,2.143-3.742,2.814-4.364"/>
      <path id="Path_30082" data-name="Path 30082" d="M58.3,35.733H12.886V23.893c1.082-.707,2.94-3.454,3.9-3.884a14.886,14.886,0,0,1,3.382-.511c10.54-.661,21.8.5,32.416.053,2.581.19,3.862,2.833,5.714,4.342ZM14.909,24.781c-.533,1-.825,4.754.246,5.277.743.361,8.023.288,8.621-.139,2.157-1.542-1.748-4.818-3.192-5.29-1.023-.335-4.993-.529-5.675.152m10.852-.339c-3.148,2.015,1.519,4.483,3.188,5.77L42.5,30.153c1.588-1.511,6.339-3.924,2.654-5.767Zm25.314.012c-1.518.308-5.936,3.838-3.665,5.465.685.491,8.2.491,8.812.006.637-.5.662-4.283.3-4.9-.527-.892-4.433-.777-5.444-.571M15.643,34.435a49.694,49.694,0,0,0,6.164,0c.083,0,.884-.757.783-1.09a3.274,3.274,0,0,0-.783-.856H15.643c-.23,0-.994,1.016-.826,1.426.048.184.746.508.826.52M27.97,32.489l-.784,1.09a3.294,3.294,0,0,0,.784.856H43.216c.083,0,.885-.757.783-1.09a3.274,3.274,0,0,0-.783-.856Zm21.409,0-.784,1.09a3.294,3.294,0,0,0,.784.856h6.163c.084,0,.885-.757.784-1.09a3.294,3.294,0,0,0-.784-.856Z" fill="#fff"/>
      <path id="Path_30083" data-name="Path 30083" d="M53.11,17.892H18.077c.761-1.751,1.644-7.148,3.326-7.865L49.31,9.852c2.257.5,2.913,6.074,3.8,8.04" fill="#fff"/>
      <path id="Path_30084" data-name="Path 30084" d="M7.372,63.954H3.8V23.893c0-1.274,3.568-1.274,3.568,0Z" fill="#fff"/>
      <path id="Path_30085" data-name="Path 30085" d="M67.383,63.954H63.815V23.893c0-1.274,3.568-1.274,3.568,0Z" fill="#fff"/>
      <rect id="Rectangle_3489" data-name="Rectangle 3489" width="12.002" height="1.622" transform="translate(9.318 42.545)" fill="#fff"/>
      <rect id="Rectangle_3490" data-name="Rectangle 3490" width="12.002" height="1.622" transform="translate(49.866 42.545)" fill="#fff"/>
      <rect id="Rectangle_3491" data-name="Rectangle 3491" width="5.839" height="2.919" transform="translate(15.157 37.68)" fill="#fff"/>
      <rect id="Rectangle_3492" data-name="Rectangle 3492" width="5.839" height="2.919" transform="translate(50.19 37.68)" fill="#fff"/>
      <path id="Path_30086" data-name="Path 30086" d="M8.67,65.576c.254.535.6,2.6-.162,2.6h-6l.051-2.058.435-.537Z" fill="#fff"/>
      <path id="Path_30087" data-name="Path 30087" d="M68.68,68.171h-6c-.762,0-.416-2.06-.162-2.6h5.676l.436.537Z" fill="#fff"/>
      <path id="Path_30088" data-name="Path 30088" d="M13.425,16.324a2.56,2.56,0,0,1,3.023,1.081c-1.182,1.63-5.314-.355-3.023-1.081" fill="#fff"/>
      <path id="Path_30089" data-name="Path 30089" d="M55.933,16.338c3.249-.986,3.226,2.569-.671,1.509-1-.27.126-1.343.671-1.509" fill="#fff"/>
      <rect id="Rectangle_3493" data-name="Rectangle 3493" width="7.136" height="5.19" transform="translate(32.025 62.981)" fill="#ff9540"/>
      <rect id="Rectangle_3494" data-name="Rectangle 3494" width="2.598" height="2.923" transform="translate(34.294 58.438)" fill="#ff9540"/>
      <path id="Path_30090" data-name="Path 30090" d="M25.762,24.442l19.394-.056c3.685,1.844-1.066,4.256-2.654,5.767l-13.552.059c-1.669-1.286-6.336-3.754-3.188-5.77m18.1,1.884c-5.487.189-11.048,0-16.543,0-.076,0-.435-.618-.489-.159l0,.477c1.049.146,1.7,1.469,2.608,1.776,1.093.369,10.366.386,11.806.158,1.481-.234,1.762-1.623,3.1-1.934l0-.477c-.055-.459-.407.156-.488.159"/>
      <path id="Path_30091" data-name="Path 30091" d="M51.076,24.454c1.01-.2,4.917-.321,5.444.571.364.618.34,4.4-.3,4.9-.615.484-8.127.484-8.812-.006-2.271-1.628,2.147-5.157,3.666-5.466M48.569,28.6h6.487V26a6.255,6.255,0,0,0-6.488,2.6"/>
      <path id="Path_30092" data-name="Path 30092" d="M14.91,24.781c.681-.681,4.652-.486,5.675-.152,1.443.473,5.349,3.748,3.191,5.291-.6.427-7.878.5-8.62.138-1.072-.522-.78-4.274-.246-5.277M22.618,28.6A6.257,6.257,0,0,0,16.129,26v2.6Z"/>
      <path id="Path_30093" data-name="Path 30093" d="M27.97,32.489H43.216a3.294,3.294,0,0,1,.784.856c.1.333-.7,1.09-.784,1.09H27.97a3.294,3.294,0,0,1-.784-.856Z"/>
      <path id="Path_30094" data-name="Path 30094" d="M15.644,34.435c-.081-.012-.779-.336-.827-.519-.167-.41.6-1.427.827-1.427h6.163a3.3,3.3,0,0,1,.784.857c.1.331-.7,1.089-.784,1.089a49.678,49.678,0,0,1-6.163,0"/>
      <path id="Path_30095" data-name="Path 30095" d="M49.379,32.489h6.163a3.294,3.294,0,0,1,.784.856c.1.333-.7,1.09-.784,1.09H49.379a3.294,3.294,0,0,1-.784-.856Z"/>
      <path id="Path_30096" data-name="Path 30096" d="M43.865,26.326c.081,0,.433-.618.488-.159l0,.477c-1.336.311-1.617,1.7-3.1,1.934-1.44.228-10.713.211-11.806-.158-.907-.307-1.559-1.63-2.608-1.776l0-.477c.054-.459.413.159.489.159,5.5,0,11.056.189,16.543,0" fill="#ff9540"/>
      <path id="Path_30097" data-name="Path 30097" d="M48.569,28.6A6.255,6.255,0,0,1,55.057,26v2.6Z" fill="#fff"/>
      <path id="Path_30098" data-name="Path 30098" d="M22.618,28.6H16.13V26a6.257,6.257,0,0,1,6.489,2.6" fill="#fff"/>
      <path id="Path_30099" data-name="Path 30099" d="M57.158,38.728c-.155-.166-.435-.307-.6-.474s-.315-.438-.491-.616c-.041,0-.432.553-.512.633-.134.132-.364.287-.519.411a.292.292,0,0,1-.106.065c-.007.009.05.06.063.071.172.149.417.292.573.448.075.075.46.627.5.627.179-.192.324-.455.509-.637s.426-.313.609-.483c.006-.023-.015-.032-.027-.044m-1.091-.447h0c-.033.014-.18.232-.224.277l0,0,0,0c.044-.045.191-.263.224-.277m-.467.475c-.006.007-.008.013-.007.016a.023.023,0,0,1,.007-.016m.47.454.471-.463a1.5,1.5,0,0,1-.471-.461,1.5,1.5,0,0,0,.471.461Z" fill="#00c3ff"/>
      <path id="Path_30100" data-name="Path 30100" d="M62.282,36.41c-.2-.195-.379-.407-.563-.616a8.181,8.181,0,0,1-.921.9c.152.148.333.278.482.429.133.134.246.292.377.43a.073.073,0,0,1,.017.044l.929-.887c.007-.034-.276-.259-.321-.3m-.555-.009h0l-.3.271Zm-.321.295h0l.311.294Zm.381.224.208-.208Z" fill="#00c3ff"/>
      <path id="Path_30101" data-name="Path 30101" d="M60.306,40.677a7.427,7.427,0,0,1-.9.888l.9.919c.138-.145.27-.325.411-.465s.308-.276.447-.394a.072.072,0,0,1,.044-.018,9.647,9.647,0,0,1-.9-.929m0,.608h0c-.038.048-.3.278-.295.31l.14.14-.14-.14c-.007-.032.257-.264.295-.311m-.015.589h0l.292-.278-.15-.167.15.168Z" fill="#00c3ff"/>
      <path id="Path_30102" data-name="Path 30102" d="M60.4,38.969l-.475-.42-.4-.48h-.047a6.217,6.217,0,0,1-.854.855.072.072,0,0,1-.044.018,9,9,0,0,1,.9.929,7.473,7.473,0,0,1,.921-.9m-.64.011.013-.013Zm-.557-.027.278-.265-.277.264.267.311Z" fill="#00c3ff"/>
      <path id="Path_30103" data-name="Path 30103" d="M59.187,37.358c-.164-.168-.356-.312-.519-.482a3.611,3.611,0,0,0-.381-.42c-.04.007-.367.4-.431.465-.147.144-.333.267-.474.419a10.486,10.486,0,0,1,.887.9c.183-.153.324-.353.5-.519.134-.128.29-.234.42-.366m-1.125-.077-.072.075Zm.379.206.139-.13-.26-.277h0l.26.277Z" fill="#00c3ff"/>
      <path id="Path_30104" data-name="Path 30104" d="M63.832,6.916l.289.02-.289.02a7.144,7.144,0,0,0-6.627,6.627l-.02.289-.02-.289a7.144,7.144,0,0,0-6.627-6.627l-.289-.02.289-.02A7.144,7.144,0,0,0,57.168.289L57.188,0l.02.289a7.143,7.143,0,0,0,6.624,6.627" fill="#00c3ff"/>
    </g>
  </g>
</svg>
